<?xml version="1.0" encoding="utf-8"?>
<!-- Generator: Adobe Illustrator 24.3.0, SVG Export Plug-In . SVG Version: 6.00 Build 0)  -->
<svg version="1.0" id="Layer_1" xmlns="http://www.w3.org/2000/svg" xmlns:xlink="http://www.w3.org/1999/xlink" x="0px" y="0px"
	 viewBox="0 0 640 480" style="enable-background:new 0 0 640 480;" xml:space="preserve">
<style type="text/css">
	.st0{fill:none;}
</style>
<g>
	<path d="M72.5,304.3c0.1,0.2,0.2,0.4,0.2,0.7c0,0.5-0.1,0.8-0.2,1.2c-0.1,0.1-0.5,1.5-0.5,1.5c0,0.3-0.2-0.5-0.1-0.8
		C72.1,306,72.2,305.1,72.5,304.3z"/>
	<path d="M431.4,213.4c0.7,1.9,0.9,3.1,0.9,3.2c0,0.2-0.1,0.3-0.1,0.5l-1,1.1c0.1-1.2,0.1-2.8,0-4
		C431.2,213.9,431.3,213.7,431.4,213.4z"/>
	<path d="M552.7,325.5c0.1-0.1,0.2-0.1,0.3-0.2c0.2-0.3,0.5-0.7,0.6-1c0,1.6,0.2,3.1-0.6,4.5C552.9,327.7,552.8,326.5,552.7,325.5z"
		/>
	<path d="M448,296.9c-0.1-0.3-0.6-1.1-0.9-1.5c0.2-0.2,0.4-0.5,0.6-0.7c0.1-0.2-0.1-0.4-0.2-0.6c0.2,0.1,0.3,0.1,0.5,0.2
		c0,0.6,0.1,1.2,0.5,1.7c0.1,0.1,0.2,0.1,0.2,0.2c0.1,0.6,0.1,1.3,0.1,2c-0.1,0.2-0.2,0.5-0.2,0.7c-0.2,0.5-0.3-0.2-0.2-0.7
		C448.4,297.5,448.2,297.3,448,296.9z"/>
	<path d="M548.3,316.2c-0.1-0.8,0-1.6-0.1-2.4c0-0.6,0-1.8,0.1-2.4c0.4-0.5,0.7-2.3,0.7-3c0.1,0.3,0.3,0.7,0.3,1c0,2.3-0.1,4.7,0,7
		c0,0.2-0.5,0.1-0.7,0.2C548.5,316.4,548.4,316.3,548.3,316.2z"/>
	<path d="M279.3,298.6c-0.1-0.2-0.1-0.3-0.2-0.5c0-0.2,0-0.3-0.1-0.5c0.4-0.5,0.1-1.6-0.2-2c0.4-0.3,0.6-1,0.6-1.5
		c-0.1-0.9-0.4-2-0.6-2.9c0-1.8,0-3.6,0.1-5.4c0-0.4,0.3-2.1,0.4-2.4c0.8-0.9,0.5-1.3,0.5-2.4c0.1-0.2,0.1-0.5,0.2-0.7
		c0.1,0.2,0.3,0.5,0.3,0.7c-0.3,4.2-0.3,8.5-0.1,12.7c-0.1,0.1-0.1,0.2-0.2,0.3c-0.3,1.1-0.2,1.6-0.1,2.7c-0.1,0.2-0.1,0.3-0.2,0.5
		s-0.2,0.3-0.4,0.5l0.7,0.3v1C279.9,298.8,279.5,298.7,279.3,298.6z"/>
	<path d="M381.6,286.7c-0.2,0.3-0.5,0.6-0.8,0.9c0.2-1.3,0.2-2.6,1.3-3.6c0.3-0.2,0.1,0.7,0,1.1s-0.1,2,0,2.3
		C382.1,287.5,381.8,286.9,381.6,286.7z"/>
	<path d="M447.2,292.8c-0.1-1.5-0.2-2.9-0.1-4.4c0-0.2,0.2-0.4,0.4-0.5c0.1,0.2,0.3,0.3,0.4,0.5c0.2,0.5,0,0.7,0.3,1.5
		c0,0.6,0.1,1.4,0,2c0,0.2-0.1,0.6-0.2,0.7c-0.4,0.2-0.1,0.7-0.5,0.9C447.2,293.4,447.3,293,447.2,292.8z"/>
	<path d="M366.3,243.5c-0.1-1-0.2-2-0.2-2.9c0-4.4,0-8.8,0-13.2c0-0.4,0.1-0.7,0.3-1.1c0,0.2,0.1,0.4,0.1,0.6
		c-0.2,15.4,0.4,31,0.8,46.4c0.1,2.6,0.7,5.6,0.9,8.3c0.1,2.1,0,4.2-0.1,6.3c0,0.4-0.2,0.9-0.2,0.5c-0.7-3.9-1.1-8.1-1.2-12.2
		c-0.1-10.8,0-21.5,0-32.2C366.6,243.8,366.4,243.6,366.3,243.5z"/>
	<path d="M47.5,317.7c0-0.3-0.1-0.7-0.1-1c0.2-34.8,0-69.5,0-104.3c-1.7-2-3.3-3.8-5.3-5.6l5.3-5.4c0-31.5-0.1-63.1,0-94.6
		c0-1.3-3.3-5.1-4.2-6.3c-0.3-0.4-0.4-0.9-0.5-1.4c0.2-0.2,0.4-0.4,0.6-0.6h33.6c0.2,1,0.2,1.2-0.3,2c-0.9,1.3-4.2,5-4.2,6.3
		c0.3,28.8,0.4,57.5,0.4,86.3h36.4c0-28.8,0.1-57.5,0-86.3c0-0.7,0-0.9-0.5-1.5c-1.5-1.9-2.8-3.8-4.1-5.9l0.1-1h34.2
		c0,1,0.1,1.2-0.4,2c-0.8,1.1-4.3,5.3-4.3,6.3c0.9,31.1,0.3,62.6,0.4,93.7c0,0.7,0.1,0.9,0.5,1.4c1.6,1.7,3.3,3.2,4.9,5
		c-1.6,1.6-3.3,3.2-4.9,4.9c-0.3,0.4-0.6,1-0.6,1.5c-0.1,13.2-0.1,26.4,0,39.5c0,6.1-0.5,14.4-1.2,20.5c-0.2,0.4-0.4,0.8-0.7,1.2
		c-0.2-0.3-0.3-0.7-0.5-1c-0.1-0.2-0.1,0.5-0.2,0.8c-0.2,0.6-0.3,1.8-0.3,2.5c-0.3-0.4-0.5-0.7-0.8-1.1c0.1-0.2,0.2-0.3,0.2-0.5
		c0-1.5-0.1-2.9-0.2-4.4c-0.5,0.4-1.3,0.3-1.7-0.2c-0.3,1-0.4,1.9-0.5,2.9c0,0.5-0.1-0.1-0.2-0.6v-4.9l-0.9-0.2
		c-0.5,0.9-0.7,1.2-0.9,2.3c-0.1-0.5-0.1-1.5,0-2.1l-0.5-0.8c-0.2,0.2-0.6,1.3-0.7,1.7c0.4,0.9,0.2,2,0,2.9
		c-0.1,0.4,0.5,2.1,0.6,2.4c-0.1,0.7-0.2,1.3-0.3,2l0.5,1c0.1-0.6,0.3-1.2,0.4-1.7c0.3,1.1-0.3,1.6-0.5,2.7
		c-0.3,2.1-0.3,4.7-0.2,6.8c0,0.2,0.1,0.3,0,0.5c-0.7,0.8-0.5,2.7-0.5,3.7H125c0.1,0.2,0-0.5,0-0.8c-0.1-2.8-0.1-5.6-0.1-8.4
		c0-0.2-0.5,0-0.7,0c-0.3,0.6-0.5,1.4-0.6,2.1s0,2.9,0.5,3.4c-0.8,0.4-0.7,0.8-0.8,1.5c-0.2,3.2-0.2,6.2-0.3,9.3
		c-0.1,0.2-0.2,0.5-0.3,0.7c0.2-2.8,0-6.9,0-10c0-0.4-0.4-0.5-0.5-0.1c-0.6,2.4-0.3,3.1-0.4,5.5c-1,1.3-1,2.3-1.1,3.9
		c0,0.8,0.1,0.8,0.3,1.5c0,0.2,0,0.3,0,0.5c-0.1,0.3-0.2,0.5-0.2,0.8c-0.2-0.2-0.3-0.7-0.5-0.6c0,0-0.5,1-0.6,1.3
		c-0.1-3.1-0.6-6.2-0.8-9.3c-0.1-2,0-4-0.1-5.9c0.6-0.5,0.5-1.1,0.6-1.2c-0.4-1.5-0.5-2.8-0.1-4.4c-0.5-0.8-1.2-2.8-1.2-3.7
		c0.1-5.9-0.2-11.7-0.3-17.6c0-1.6-0.5-3.4-0.8-5c-0.1-0.4-0.3,0.7-0.3,1.1c0.1,2.2,0.4,4.6,0.6,6.8c0,0.4-0.2,0.7-0.4,1.1
		c-0.1-0.2-0.2-0.4-0.2-0.6s0-0.3,0-0.5c-0.1-3.2-0.3-6-0.9-9.3c-0.1-1-0.1-2.4-0.1-3.4c0-0.5,0.1-1.2,0.2-0.7
		c0.2,1.6,0.2,2.6-0.1,4.2l1.2,0.2c0,0.1,0-0.1,0-0.2c-0.3-2.6,0.1-4.1-0.5-6.8c-0.1-0.3-0.3,0.6-0.5,0.9c-0.4,0.5-0.2,0.6-0.3,1.1
		c-0.2,0.1-0.5,0.2-0.7,0.2c-0.1,0.7-0.3,1.3-0.2,2c0.1,2.7-0.6,6.9-0.4,8.8c0.4,1.3,0.5,4.1,0.4,5.4c-0.3,4.7,0.1,9.8,0,14.6
		c-0.1,0.2-0.1,0.4-0.2,0.6c-0.1-0.2-0.2-0.4-0.2-0.6c-0.1-3.8-0.1-7.7,0-11.5h-0.8c0.1,0.2,0,0.5,0,0.8c0.1,2.3,0.1,4.6,0,6.8
		l-0.6,0.7c0.1,0.2,0.2,0.5,0.3,0.7c-0.1,0.2-0.2,0.4-0.2,0.6c0-0.2,0-0.4-0.1-0.6c0.4-5.8-0.1-12-0.2-17.9h-0.4
		c0.1,0.2,0,0.5,0,0.8c0.2,9.2-1,18.2-1.1,27.3c0,0.3-0.1,0.5-0.2,0.8c-0.1-0.3-0.3-0.5-0.3-0.8c-0.1-3.9,0-7.8-0.4-11.7
		c-0.1-0.8-0.4-1.6-0.5-2.4c0.1-0.2,0.2-0.3,0.2-0.5s0-0.3,0-0.5c-0.2-0.3-0.5-0.7-0.8-1c0-0.1-0.1-0.9-0.1-1
		c0.3-16.1,0-32.2,0-48.3c0-0.5,0-0.9,0-1.4c-0.2-0.1-0.4-0.3-0.6-0.4c-7.8,0-15.6,0-23.4,0c-4.1-0.1-8.3,0-12.5-0.1
		c-0.1,0.8,0.1,1.2,0.5,1.8c-0.2,0.2-0.3,0.3-0.5,0.5c0,0.2-0.1,0.8-0.1,1c0.1,10.2,0,20.5,0,30.8c0,0.2,0,0.4-0.1,0.6
		c-0.1,0.1-0.3,0.3-0.4,0.4c-0.3,0.5-1.1,2.8-1.2,3.4c-0.1,0.7-0.1,2.3,0,2.9L71,260c0.3-0.3,0.6-0.6,0.9-0.9
		c0.4-0.4,0.4,0.3,0.1,0.7l-0.7,0.8c0.1,2.1,0,4.9-0.2,7c-0.6,0.6-0.9,1.2-0.9,2c-0.4,3.7,0.4,11.7,0.9,15.6c0.2,1.5-0.1,2-0.5,3.3
		c0.7,1.2,0.6,4.7,0.4,6c0,0.2-0.1,0.5-0.1,0.7c0.1-2.1-0.1-4.3-0.3-6.4c-0.4,0.6-0.9,1.4-0.9,2.2c-0.2,3.3,0,7.5,0.3,10.8
		c-0.2,0.2-0.4,0.4-0.6,0.7c0-0.2-0.1-0.5-0.1-0.7c-0.1-3.6-0.1-7.2-0.1-11.2c0.2-0.1,0.4-0.4,0.4-1c-0.1-2.1-0.3-4.3-0.4-6.3
		c-0.3,0.3-0.8,0.9-0.9,1.4c-0.3,4.6-0.2,9.1-0.3,13.7c0.1,0.1,0.3,0.2,0.4,0.3c0.2,0.5,0.2,0.5,0.2,0.7c0,2.7,0,5.5,0,8.2
		c-0.1,0.1-0.1,0.2-0.2,0.3c-0.2,0-0.3,0.1-0.5,0c-0.1-0.1-0.2-0.2-0.2-0.3c0.1-0.2,0.2-0.3,0.2-0.5c-0.3-5.8,0-11.3-0.8-17.1
		c-0.2-0.8-0.4-2.1-0.6-2.9c-0.2-0.7-0.3-1.4-0.6-0.7c-0.1,0.2-0.2,0.5-0.3,0.7c0.2,0.4,0.2,1.1,0.2,1.5c0,0.6-0.1,1.3-0.4,0.7
		c-0.5-1.3-0.7-3.4-0.6-4.8h-0.5c0.1,0.2-0.1,0.5-0.1,0.7c-0.1,1.4-0.5,4.8-0.1,5.9c0.1,1.3,0.1,2.6,0,3.9c0,0.2-0.1,0.5-0.2,0.7
		c-0.2-0.2-0.5-0.4-0.7-0.6v5.4c-0.3,0.1-0.5,0.2-0.8,0.3c0.1,1.3,0.8,3.1,0.7,4.4c-0.2,1.6-1.5,5.4-1.7,7.3
		c-0.1,1.2,0.4,1.6,0.2,2.9c0,0.2-0.7,1.9-0.9,2.1c-0.1,0.2-0.4,0.1-0.6,0.1c0.1-1.3,0.2-2.3,0.5-3.6c-0.2-0.1-0.3-0.2-0.5-0.3
		c0-0.1-0.1-0.2-0.1-0.2c0-8.6-0.5-17-0.6-25.6H59c0.1,0.7,0,1.5,0,2.2s-0.1,1.5-0.3,0.9c-0.1-0.3-0.2-0.6-0.2-0.9
		c0.1-7.4-0.1-16.2-1-23.4c0.3-0.7,0.5-1.1,0.4-2c-0.3-1.5-0.2-3-0.4-4.4l-0.9-1.5c-0.2,3.1-0.6,5.8-0.9,8.8c-0.1,2.8,0.1,5.6,0,8.3
		c0,2-0.2,3.9-0.6,5.9c0.2,3.9,0.5,8.3,0.3,12.2c0,0.9-0.1,1.8-0.5,2.6c-0.1-0.1-0.5-0.4-0.7-0.6c0.1,1.3,0.6,9.9,0.8,10.1
		c0.1,1.1,0.1,2.3,0.1,3.4c-0.3,1.9-0.5,4-0.7,5.9c-0.2,1.5-0.3,2.4-0.7,3.9c0.2,1.6,0.3,3.7,0.2,5.4c-0.5,0.6-0.5,1.7-0.3,2.4
		c0.1,0.6-0.1,1.3-0.3,0.7l-0.4-1.1l-1,0.4c0.2-0.2-0.5-0.6-0.2-0.6c0.2-0.1,0.7-0.3,0.9-0.5c0-0.4,0.6-1.2,0.8-1.5
		c-0.2-0.2-1.1-2.1-1.1-2.2L52,322c0-1.3,0.1-2.6,0-3.8c0.2-2.6-0.4-5.2-0.2-7.3l-0.5-1.2c-0.1,0.2-0.3,0.5-0.3,0.8
		c0,1.6-0.1,3.3-0.3,4.9c-0.1,0.7-0.4,1.5-0.3,0.8c0.1-1.1,0.2-2.2,0.1-3.3c-0.2-1.8-0.8-3.6-1-5.4c-0.3,1.5-0.6,3-0.6,4.5
		c0.1,3.9,0,7.4-0.4,11.2c0.2,0.2,0.6,1.2,0.7,1.5c-0.1,0.2-0.2,0.3-0.2,0.5c-0.1,3.8-0.2,7.5-0.3,11.2c0,0.3-0.1,0.5-0.1,0.8
		c0-0.3-0.1-0.5-0.1-0.8c0-6-1-12.1-0.7-18.1C47.9,318.3,47.7,317.9,47.5,317.7z M64.2,275.5c-0.1,1.6-0.2,3.2,0.1,4.7
		c0.4-0.4,1-1.6,1.1-2.1c0-0.2-0.5-2.4-0.5-2.4c-0.1-0.1-0.1-0.3-0.3-0.4C64.5,275.3,64.4,275.5,64.2,275.5z"/>
	<path d="M555.6,323.5c0,0.6,0,1.3,0,2c0,0.4,0.7,1.3,0.3,1.1l0.2-6.3h0.5c-0.3,4.8,0.5,10.8,0.6,15.9c0,0.5,0.4,1.1,0.4,1.5
		c0.2,3.9,0.2,7.9-0.3,11.7c0.3,0.5,0.7,0.9,1.1,1.3c0-0.4,0-0.9,0-1.3c-0.1-41.7-0.1-83.3,0-125c0-4.4,0.4-8.7,0.1-13l4.4-4.6
		c-1.1-1.3-4.4-4-4.4-5.4c-0.1-26.5,0-53,0-79.5c10.1,0,20.3,0.4,30.4-0.3c0.2,0,0.8,0,1,0.2c2.2,1.5,4.2,3.1,6.3,4.6
		c0.4,0.3,1.1,0.2,1.5,0.2V92.4c-0.4-0.1-1.1-0.2-1.4,0c-1,0.7-5.4,4.1-6.3,4.2c-28.6,0.1-57.3,0.1-85.9,0c-1.2,0-4.6-3.2-5.9-4
		c-0.7-0.4-0.9-0.4-1.8-0.3c0,11.1,0,22.3,0,33.4c0,0.3,0.1,0.7,0.2,1c0.6-0.1,1.2-0.2,1.7-0.6c2.2-1.6,4.3-3.2,6.4-4.7
		c9.2,0.2,18.5,0.4,27.7,0.4c0.3,0,0.7,0.1,1,0.1c-0.3,26.3-0.1,52.6-0.1,78.9c-1.7,2-3.6,4.1-5.6,5.9l5.5,5.3
		c-0.1,6.5,0.5,12.6,0.1,19.1c-0.1,2.2,0.7,5.4,0.7,7.3c-0.1,8.3-0.4,16.5-0.2,24.9c0,0.8,0.2,1.7,0.3,2.4c0.1,0.2,0.2,0.5,0.2,0.7
		c0.1-0.2,0.2-0.5,0.2-0.7c0-1.3,0.1-2.5,0.2-3.7c0.2-0.7,0.4-1.3,0.3-2.2c0-0.2,0-0.8-0.1-1c0-0.1-0.1-0.2-0.2-0.3
		c-0.1-0.1-0.1-0.2-0.2-0.2c0.5-6.8,0.5-14.1,0.5-21c0-0.5,0.1-1.1,0.2-1.6c0.3-0.1,0.8-0.6,0.8-0.3c-0.1,4.5-0.1,9.2,0,13.1
		c-0.1,1.8-0.1,3.1,0,4.4c0,0.2,0,0.3,0,0.5c1.2,2.9,0.7,16.2,1.1,20.5c0.1,1.8,0.3,7.8-0.2,9.3c-0.1,0.2-0.3,0.3-0.4,0.5
		c0.1,0.5,0.4,1.3,0.4,2c0.5,0.4,0.9,1.3,0.8,2c-0.2,1.6-0.3,3.2-0.2,4.9c0,0.2,0.2,0.7,0,0.6h0.4c0-2.5,0.4-4.3,0.5-6.5
		c0.1-2.6-0.3-5.3-0.5-7.8c0.1-0.2,0.2-0.3,0.3-0.5c0-2.7,0.1-5.2,0.5-7.8c-0.1-1.3-0.2-2.6-0.1-3.9c0.1-0.9,0.7-2.3,1-2.9
		c0.3,3,0.6,5.3,0.3,8.3c0,0.2,0,0.5,0.1,0.7c0.1-0.5,0-1.2,0.2-1.7c0.1-0.2,0.3-0.3,0.4-0.5c0.1-3.3-0.1-6.3,0.2-9.6
		c0.5,0.9,0.7,2.2,1,3.2c0.3,3.9-0.2,10.9-0.1,15.1c0.2,4.3,1,9.5,1.1,13.7c0.1,2.4-0.1,4.9,0,7.3c0,0.3,0.1,0.5,0.2,0.7
		c0-2.4,0-4.7,0-7.1c0-0.5,0.2-0.9,0.3-1.4l0.9,0.9c0.2-2.7-0.4-5.2,0.2-7.8c-0.8-1.2-0.8-3-0.6-4.4c0-0.5,0.3-1,0.6-1.3
		c0.4,0.9,0.9,1.8,1,2.8s0.1,5.3-0.6,5.9c0,3.6,0.1,7.2,0.3,10.7c0,0.2-0.4,0.4-0.2,0.5c0.3,0.3,0.6,0.5,0.6,1
		c-0.1,2.9-0.2,5.9-0.1,8.8c0,0.2,0.2,0.3,0.2,0.5c0.1,1.5,0.2,3.1,0.4,4.6c0.1,0.5,0.2-0.2,0.2-0.7c-0.1-2.1-0.1-4.2-0.1-6.3
		c0-0.2,0.2-0.6,0-0.7h0.5c0.1,3.2,0.3,6.3,0.4,9.5c0.2,0.2,0.5,1,0.7,0.7c0.5-0.9-0.3-0.4,0.4-1.2c-0.1-0.8,0-1.6-0.1-2.4
		c0-0.6,0-1.8,0.1-2.4c0-0.8-0.2-1.6,0-2.4c0.7-3,1.4-7.1,1.5-10.2c0-0.7,0.7-1.8,1-2.2c0,3.2,0.3,6,0.5,9.1c0,0.4-0.4,2.1-0.4,2.4
		c-0.1,3,0.4,5.4,0.5,8.3c0.1,3.4-0.2,6.3-0.3,9.7c0.5,0.5,0.5,0.7,0.9,1.3c0.1,0.1,0.2-1.4,0.7-1.8c0.1-0.1,0.2-0.1,0.3-0.2
		c-0.1-0.2,0-0.6,0-1.1c-0.1-2.4-0.1-5.1,0.2-7.5c0-0.2,0.3-0.5,0.1-0.6h0.5l0.1,2.9h0.5c0.1-1.7,0.1-4.1,0.3-5.7
		c0.1-0.5,1.1-1.1,0.7-1.3l0.5,5.2C555.6,319.3,555.6,321.5,555.6,323.5z"/>
	<path d="M259.5,285.3c3.7,0,7.4,0,11.1,0c0-2.2,0-4.4,0-6.7c0.1-0.2,0.3-0.3,0.3-0.5c0.1-0.4,0.4-0.7,0.8-0.9
		c0.2-0.9,0.4-1.6,0.3-2.5c-0.4-7.7,0.2-15.3,0.1-23c0-1.3-0.9-4.5-1.3-6.3c0-0.2-0.2-0.3-0.3-0.5c0-46.1,0-92.1,0-138.2
		c0-1.1-3.4-5.1-4.2-6.3c-0.1-0.2-0.3-0.7-0.3-1l-0.2-0.9c0.3,0,0.6-0.1,0.9-0.1c11.1,0,22.2,0,33.3,0c0.1,0.3,0.1,1.1-0.1,1.5
		c-1.4,2.1-3,4.1-4.4,6.1c1,31.5,0.3,63.4,0.4,95c0,0.3,0.2,0.7,0.4,1c1.6,1.6,3.2,3.2,4.8,4.8c-1.9,1.8-3.6,3.7-5.2,5.7
		c0,10.2,0.1,20.4,0,30.6c0,2.1-0.2,4.2-0.3,6.3c-0.5,1.6-0.8,4.1-0.7,5.9c0,5,0.4,10.1,0.4,15.1c0,0.7-0.1,1.5-0.3,0.8
		c-0.9-3.7,0.1-8.7-0.3-12.5c-0.1-1.2-0.3-3.1-0.6-4.3c-0.1-0.3-0.4,0.6-0.6,0.9c-0.1,2.9-0.1,5.7,0,8.6c-0.2,1.1,0.4,1.4,0.4,2.7
		c-0.1,6.1,0.3,11.9,0.1,18c-0.1-0.3-0.3-0.6-0.3-0.9s0-1.3,0-1.5c0.1-1.9,0.1-3.9,0.1-5.9c0-1-1.2-1.4-1.2-2.4
		c0.1-1.8-0.2-4.5-0.4-6.3l-0.6-0.8c-0.1,3.6,0.1,7.1,0.1,10.7c0-0.2,0-0.4,0-0.6c0.1-0.6-0.2-1.4-0.4-2c-0.2-0.6-0.2-1.8-0.3-2.4
		c0-1,0-2,0-2.9c0-3.1,0-6.2-0.1-9.3c0-0.3-0.1-0.5-0.1-0.8c-0.2-0.5-0.4-1.1-0.5-0.5c0,0.4-0.4,1.9-0.6,2.3
		c0.1,0.2,0.2,0.3,0.3,0.5c0,0.2,0,0.3,0.1,0.5c0,0.3,0,0.7,0,1c-0.9,6.6-0.9,15.7-1,22.5c0,0.2-0.2,0.4-0.2,0.7
		c-0.1-0.2-0.3-0.4-0.4-0.7c-0.2-0.8-0.3-1.8-0.4-2.9c-0.2-2-0.1-5-0.1-7.1c-0.2-0.1-0.4-0.1-0.5-0.2c-0.2-0.1,0.2-0.3,0.2-0.5
		c-0.3-1.5-0.5-2.9-0.6-4.4c0-0.3-0.4,0.5-0.6,0.7c0,0.4-0.2,1.4-0.3,1.7c0.1,0.2,0.2,0.3,0.3,0.5c0,0.9,0,1.8,0,2.7
		c0,0.5-0.2-0.2-0.2-0.7c0-0.3,0-0.7,0-1l-0.4-1.3c-0.1,4-0.2,7.6,0,11.5c0.1,2.8,0.1,5.5,0.1,8.3c-0.2,2.2-0.2,4.1-0.9,6.1
		c-0.2,0.6-0.3-0.2-0.2-0.8c0.1-3.4-0.2-6.4-0.6-9.8c-0.1-0.9-0.1-2,0-2.9c0.1-0.2,0.3-0.3,0.3-0.5c-0.1-0.3,0.2-0.4,0.4-0.5
		c0-1.3,0.2-2.7-0.2-3.9c-0.3-1.1-0.2-1.8-0.5-2.9c-0.1-0.2-0.5,0.2-0.7,0.4c-0.1,1,0,1.9-0.5,2.7c-0.1-0.2-0.4-0.4-0.4-0.7
		c-0.2-1.1-0.4-1.8-0.3-3.4c-0.2-1-0.1-2.6-0.1-4.2h-0.7l0,0c-0.1,1.7-0.2,3.4-0.3,5.2c0.2,1.8,0.2,3.5-0.2,5.6
		c-0.2,2.3-0.2,4.4-0.3,7.1c0.1,1,0.2,1.9,0.1,2.9c0,0.3-0.2,0.6-0.3,0.9c-0.1-0.3-0.3-0.6-0.5-0.2c0.1-0.1,0.1-0.2,0.2-0.3
		c-0.2-4.2-0.1-8.5,0.1-12.7c0-0.3-0.2-0.5-0.3-0.7c0.6-0.1,0.7-0.8,0.6-1.2c-0.1-0.6-0.3-1-0.6-1.4h-0.7c0,0.3-0.1,0.6-0.1,0.9
		c0,1.7,0,3.2,0,4.9c-0.1,0.3-0.3,2.1-0.4,2.4c-0.1,1.8-0.1,3.6-0.1,5.4c-0.5,0.3-0.5,0.9-0.7,1.2c-0.4,0.5-0.4-0.1-0.4-0.8
		c0-0.6,0.1-1.4,0.2-2c-0.3-0.2-1-1.2-1-1.5c-0.1-2.2,0.2-5.1,0-7.3c-0.2-2.2-1-3-0.1-5.4l-0.9-0.3c0.2,0.2-0.1,0.6-0.1,0.9
		c-0.2,1.4-0.2,2.3-0.3,3.9c0,2.7,0.2,5.5,0.1,8.1l-1,0.2c0.1,1.7,0,3-0.2,4.7l-0.6-0.1c0.2,0.1,0-0.5,0.1-0.7
		c0.1-1,0.2-1.9,0.4-2.9l-0.8-0.4c0.1,0.7-0.1,2.4-0.7,3l-0.8-1.4c-0.5,0.2-1.1,0.7-1.2,1.2c-0.3,1.8-0.6,3.6-1,5.4
		c-0.2,0.8,0.1,2.2,0.3,2.9c-0.1,0.3,0,0.7-0.2,0.8c-0.2-0.1-0.3-0.3-0.5-0.4s-0.3,0-0.5-0.1c-0.2,0-0.3,0.1-0.5,0.1
		c-0.3,0.1,0.1-0.6,0.1-0.9c-0.4-2.6-0.8-5-1-7.6l-1.1,0.1c0.4,0.8,0.4,1.7,0.2,2.6c-0.7-1.6-0.9-3.2-0.4-4.7l-1-1.1
		c0,1.6,0.2,2.9-0.5,4.3c0.1,0.9,0.2,2.2,0.4,3.1l-1.1,0.1c0.1,0.1,0-0.2,0-0.3c0-0.2,0-0.3,0-0.5c0-0.6,0.4-2.2,0.2-2.9
		c-0.3-1.1-0.3-2.1-0.7-3.2c-0.4,0.8-0.5,1.7-0.4,2.6c-0.2,0-0.4-0.1-0.7-0.1c0.1,3.3,0,7.3-0.2,10.5c0,0.2,0,0.3,0,0.5
		c-0.1,0.2-0.2,0.4-0.2,0.7c-0.1-0.2-0.2-0.4-0.3-0.7c-0.1-0.2-0.1-0.5-0.2-0.7c-0.1-0.6-0.2,0.2-0.2,0.7s-0.2,1.3-0.3,1.8
		c-0.1,0.6-0.3-0.2-0.2-0.8c0.2-1.4-0.1-2.6-0.6-4c-0.2,0.4-0.5,0.8-0.7,1.2c-0.3,0.5-0.3-0.1-0.2-0.7c0.1-0.5,0.2-1,0.7-1.3
		l-0.8-0.5c-0.3-1.7-0.7-3.7-0.6-5.5c0.1-2.4,0.4-5.1,0.1-7.5C259,285.6,259.3,285.5,259.5,285.3z"/>
	<path d="M52.4,329.9c0-0.2,0-0.3,0-0.5s0.1-0.5,0.1-0.7c0.1-0.5,0.3,0,0.5,0.5l0.1,2.4c0-1.1-0.6,0.1-0.5-0.1
		c0-0.5-0.6-0.2-0.3-0.6C52.5,330.6,52.6,330.2,52.4,329.9z"/>
	<path d="M227.1,307.4c0-0.4,0-0.6,0.1-1c0.3-1,0.5-2.1,0.6-3.2c0.2,0.2,0.4,0.5,0.5,0.7l-0.5,0.8c0.9,0.7,0.6,2.6,0.5,3.6
		c0,0.2,0,0.4,0,0.6c-0.1-0.2-0.3-0.4-0.3-0.6s0.1-0.3,0.1-0.5c0.1-0.6,0-1.2-0.2-0.7c-0.2,0.3-0.3,0.6-0.5,0.9
		C227.2,307.9,227.2,307.7,227.1,307.4z"/>
	<path d="M549.4,326c-0.1-3.7-0.1-3.9-0.1-4.1c-0.2-0.1-0.5-0.1-0.7-0.2l0.1-3.7c0.3,0.2,0.6,0.4,0.9,0.7c0.1,0.1,0.1,0.3,0.1,0.5
		c0.2,1.4,0.3,2.8,0.4,4.4c0,0.1-0.1,2.3-0.2,2.4c-0.1,0.2-0.2,0.5-0.3,0.7C549.5,326.4,549.4,326.2,549.4,326z"/>
	<path d="M52.3,347.4c0.1-0.9,0-1.6,0.1-2.4c0-0.2,0.1-0.4,0.2-0.6c0.1,0.2,0.2,0.4,0.3,0.6c-0.1,1.4,0.1,3.5,0.3,4.9
		c0,0.2,0.1,0.5-0.1,0.5c-0.1-0.2-0.2-0.4-0.3-0.5c-0.2-0.3-0.3-0.6-0.4-1C52.2,348.4,52.2,348,52.3,347.4z"/>
	<path d="M424.2,373.3c0.4,0.2,0.2-0.8,0.1-1s-0.1-0.4-0.1-0.6h-0.8c0,0.5,0.1,2,0,2.5c-0.7,3.9-1.3,7.8-1.8,11.7
		c-0.1,0.5,0.1,1.1,0.3,1.6h-4.8c-1-7.7-2.2-22.5-4.8-29.3h4.7c-0.6,3.2,1.3,12.3,2,16.5c-0.4,0.5-0.1,1-0.2,1.9l0.9-0.6
		c0-1.1,0.1-2.1,0.1-3.2l1.5-14.4c1.5-0.2,3.4-0.6,4.8,0.1c-0.7,2.9,1.6,14.1,2.1,17.7c0.1-0.5,0.3-1,0.4-1.4
		c0.6-4.4,2.4-12.6,1.8-16.6h4.8c-0.4,1.3-0.8,2.6-1,3.9c-1.1,7.8-2.3,15.6-3.7,23.4c-0.1,0.7,0.1,1.4,0.3,2.1h-5.3
		c0.4-0.5,0.6-1.4,0.5-2.1C425.5,381.6,424.9,377.7,424.2,373.3z"/>
	<path d="M215.8,291.3c0-1.1,0-2.3,0-3.4c0.3-0.9,0.4-2.4,0.3-3.4c-0.3-3.5-0.6-6.8-0.8-10.3h-0.5c0.1,0.1,0,0.4-0.1,0.5
		c-0.3,3.2-0.3,7.2-0.2,10.3c0,0.3-0.1,0.6-0.3,0.9c-0.1,0.1-0.1,0.2-0.2,0.2c-0.2,0-0.3,0.1-0.5,0.1c-0.1-0.1-0.2-0.2-0.2-0.3
		c0-0.2,0-0.3,0-0.5c-0.1-0.6,0-1.2,0.2-1.7c0.1-2.3,0.1-4.7,0.2-7.1c-0.2-1.4-0.4-2.9-0.8-4.3c-0.3,1.9-0.4,4.3-0.2,6.2
		c0,0.2-0.1,0.4-0.2,0.7c-0.1-0.2-0.2-0.4-0.2-0.7c-0.1-0.9,0-2,0-2.9c0.2-1.5,0.3-2.8,0.3-4.4c-0.2-2.2-0.6-4.2-1.1-6.3
		c-0.5,4.1-0.9,7.7-1.2,11.7c0,0.6,0.1,1.2,0.2,1.7l-0.6,0.6c0.3,0.3,0.6,0.3,0.8,0.7c0,1.5,0.1,2.9,0,4.4c0,0.3-0.1,0.5-0.2,0.7
		c-0.1-0.2-0.2-0.5-0.2-0.7c0-1.2,0-2.1-0.1-3.3h-0.5c0.2,0.2,0,0.5,0,0.8c-0.1,1.3,0.1,3.1,0.2,4.4c0,0.3-0.2,0.5-0.3,0.8
		c-0.1-0.3-0.3-0.5-0.4-0.8c-0.2-2.5-0.2-4.9-0.3-7.3c0.3-1.6,0.3-2.7,0.2-4.4l-0.5-2.3c-0.9,3.6-0.6,7.4-0.8,11.1
		c0,0.3-0.1,0.5-0.2,0.8c0-0.3,0-0.5-0.1-0.8c0.1-10.3-0.5-20.4,0.1-30.8l-0.6-1.6c-0.4,3.5-0.9,9.5-0.3,12.8c0,0.2-0.5,1.3-0.6,1.5
		c-0.1,0.7,0,0.9,0.2,1.5v1c-0.4,8-0.3,16-0.7,23.9c0,0.3-0.1,0.7-0.3,1l-0.5,1.3c-0.3-18.2-0.4-36.7-0.3-55c0-0.7,0.1-1.8,0.2-2.4
		c0.4-1.6,0.7-3.2,0.7-4.9l-0.7-0.2l0.1-18.2c-0.1-0.1-0.3-0.3-0.4-0.4l-5.7-5.6l5.8-6c0-31.4-0.2-62.7,0-94.1c0-1.5-3.1-5-4.1-6.3
		c-0.5-0.6-0.4-1.2-0.4-2h34.2c0,0.7,0.1,1.3-0.4,2c-1.2,1.5-4.3,4.6-4.3,6.3c-0.2,7,0.4,14.4,0.4,21.5c0,35.5,0.1,71-0.1,106.6
		c0,0-0.1,0.2-0.2,0.3c0,5.7,0.2,11.4-0.2,17.1c-0.1,1.1-0.8,3.5-0.9,4.9c-0.1,1.6,0.3,5.2,1.1,6.3l0.1,1l-0.1,20.8
		c0.2,0,0.5,0.1,0.7,0.1c6.8,0.1,13.7-0.1,20.5,0c0.1,0,0.2,0.1,0.2,0.1c0.3,0.1,0.6,0.5,0.8,0.7c0.1,0.2,0.3-0.3,0.5-0.5h5.5
		c-0.4,3.5-0.6,7.1-0.9,10.5c0,0.3-0.1,0.5-0.2,0.7c-0.1-0.2-0.3-0.5-0.3-0.7c-0.1-0.9,0-1.6,0.1-2.4c-0.2-0.3-0.5-0.6-0.4-1
		c0.1-0.2,0.3-0.3,0.5-0.5c-0.2-0.2-0.3-1.5-0.3-1.7c-0.2,0.7-0.5,1.2-1,1.7l0.5,0.9c-0.2-0.2-0.4,0.5-0.4,0.2l-0.6-1
		c0,0.5-0.1,0.9-0.1,1.4L254,294c0.2,1,0.3,1.1,1.1,1.6c-0.2,0.1-0.4,0.2-0.6,0.3l-0.7-0.1c-0.2,1-0.2,1.4,0,2.4c0,0.2,0,0.3,0,0.5
		c0,0.3-0.1,0.5-0.3,0.8c-0.2,0.2-0.3,0.3-0.5,0.5c0-0.3,0-0.5-0.2-0.8c-0.7-3-0.6-5.3-0.7-8.5c0-0.4-0.2,0.8-0.3,1.1
		c-0.1,2.8-0.1,5.5-0.2,8.3c-0.1,0.2-0.1,0.5-0.2,0.7c-0.1-0.2-0.3-0.5-0.4-0.7c-0.3-2.2-0.7-4.4-1-6.6c0-0.3-0.2,0.5-0.4,0.7
		c0.4,0.8-0.6,2-1.1,2.5c0.2-2.8,0.1-4,0-6.7c-0.4,1.2-0.9,3.1-0.7,4.4h-0.9c-0.2,1.8,0.1,2.8,0.5,4.4c0.1,0.1,0.1,0.2,0.2,0.3
		c0,0-0.1,1.2-0.2,1.5c-0.9,1.9-1.1,1.4-1.3,3.6c-0.1-0.4-0.3-0.8-0.3-1.2c-0.1-1,0-2,0-2.9c0-1-0.5-2.2-0.8-1.2
		c-0.1,0.2-0.1,0.4-0.2,0.7c0.2,0.5-1,2.4-1.3,2.7c-0.5-1.4-1.1-2.4-1.9-3.6c-0.3,0.7-0.5,1.2-0.5,2c-0.3,0.2-0.7,0.5-0.8,0.9
		c-0.2,0.7-0.1,2.4-0.1,3.1c0,0.4-0.3-0.8-0.4-1.2c0.1-0.3-0.2-2.3-0.3-2.6c-0.3,0.6-0.7,1.3-1,2c-0.2-0.1-0.3-0.2-0.5-0.4
		c-0.2,0.2-0.3,0.5-0.5,0.7c-0.3,0.5-0.5-0.1-0.3-0.7l-0.2-1.2c-0.1,0.3-0.3,0.7-0.4,1l-0.7-0.1c0.1,0.9,0.1,1.8,0.1,2.7
		c0,0.7-0.3,1.5-0.4,0.8c-0.3-1.5-0.4-3.1-0.9-4.5c-0.2,0.2-0.5,0.5-0.7,0.7c-0.2,0.6-0.1,2.6,0.1,3.2l-1.1,0.4l0.6-1.1
		c-0.4,0.4-0.2,0.1-0.2-0.1c0-0.3-0.2-0.6-0.2-0.9c-0.4,0.6-0.9,1.4-1,2.1c-0.5-0.5-0.9-0.9-1.4-1.2c0.1-1-0.1-2.4-0.3-3.4
		c-0.3,0.5-0.5,1-0.8,1.6c-0.2,0.4-0.6,0.1-0.5-0.4l0.1-0.6l-0.8-1.1l-1.2,2.1c-0.2-1-0.3-2-1.2-2.6c0-1.8,0-3.6-0.3-5.4
		c-0.1-0.4-0.4-0.7-0.7-1l0.5-0.8c-0.1-2.4-0.6-4.5-0.5-7c0-0.6-0.1-1.4-0.3-2l-0.7-0.9c0,2.4-0.1,4.9-0.2,7.3
		c0,0.5-0.1,1.2-0.2,0.7c-0.1-1.7-0.5-3.7-1-5.2c-0.2-0.5-0.3,0.1-0.3,0.7c0,0.3,0,0.6,0,1c-0.1,0.3-0.2,0.5-0.2,0.8
		c-0.1-2.5-0.1-5.1,0.1-7.6c-0.6-0.9-0.8-2.1-0.6-3.2c0.3-0.1,0.5-0.1,0.8-0.2c0.4-0.1-0.6-0.6-0.6-1c-0.1-3.4-0.3-6.7-0.4-10
		c-0.2,0.2-0.4,0.5-0.6,0.8c0.1,1.8-0.3,4-0.2,5.9c0.3,3.5,0.3,6.8,0.2,10.3c0-0.2-0.1-0.4-0.1-0.5c0.1-1.8,0-3.5,0-5.2l-1.3,0.3
		c0,0.3-0.1,0.7-0.1,1c0.3,2.9,0.8,5.8,0.8,8.8c0,1-0.5,2.1-0.6,2.9c-0.1,2.6,0.2,6.8,0.4,9.6l-0.9,0.1c0.1,0.1,0-0.2,0-0.4
		c0.1-1.8-0.3-5.7,0.7-6.8c-0.3,0.1-0.3-0.2-0.5-0.4c-0.1-0.2-0.3-0.4-0.5-0.6c-0.5-0.6-0.5,0.2-0.5,0.9c0,3.1,0.3,6.2,0.1,9.3
		c-0.1,1-0.2,1.6-0.5,2.4c-0.1,0.2-0.1,0.5-0.2,0.7c-0.3-0.6-0.4-4.2-0.3-5.1c-0.3-0.2-0.8-1.1-0.7-1.5c0.2-1,0.2-2.9,0.2-3.9
		c-0.2-0.2-0.3-0.3-0.5-0.5c0-0.6-0.1-1.1-0.1-1.7l-0.6,0.5c0-0.4-0.1-0.8-0.1-1.3C216.2,291.6,216,291.5,215.8,291.3z"/>
	<path d="M176.5,387.6c-1.2,0-2.5,0-3.7,0c0.5-3.9,0.3-7.9,0.3-11.8c0-1.3-2-1-2.8-0.9c-0.2,0.3-0.5,0.6-0.7,0.9
		c0,3.9-0.4,8,0.4,11.8h-4.6c0.2-7.5,1.4-22.5,0-29.3h4.5c-0.5,4.1-0.3,8.4-0.3,12.5c1,0.2,2.5,0.4,3.4-0.2c0-3.6,0.5-9.1-0.4-12.4
		c1.5-0.1,3.3-0.2,4.8,0.1c-0.3,0.8-0.5,1.5-0.5,2.2c0,8.3-0.1,16.6,0,24.9c0,0.6,0.3,1.5,0.5,2.1
		C177.2,387.6,176.9,387.6,176.5,387.6z"/>
	<path d="M392.8,178.1c-0.1-0.2-0.2-0.4-0.2-0.6c-0.1-0.7,0-1.4,0-2.1l-1.5-1.4c0.1,2,0.2,4,0.1,6c0,0.3-0.2,0.5-0.3,0.8
		c-0.1-0.3-0.1-0.5-0.2-0.8c-0.5-3.5-0.4-6.9-0.3-10.4c0-0.7,0.6-0.1,0.7,0.7c0.1,0.4,0.1,0.7,0.2,1.1c0,0.2,0.3,0,0.5,0.1
		c0.2,0.2,0.5,0.6,0.6,0.8c0.3,0.6,0.6,1.7,0.7,2.4c0,0.7,0.1,2.3-0.1,2.9C393,177.8,392.9,177.9,392.8,178.1z"/>
	<path d="M448.5,296c0.2,0.7,0.2,1.2,0.2,1.7C448.7,297.8,448.7,298,448.5,296c0.2,0.8,0.2,1.5,0.2,2.1c0.3,0,0.4-0.2,0.4-0.5
		c0.1-1.4,0.1-3-0.1-4.4c0-0.2,0.1-0.3,0.2-0.5c-0.2-0.2-0.4-0.3-0.5-0.5c0-0.6,0.1-1.3,0-1.9c0-0.3-0.2-0.5-0.5-0.5
		c0,0.6,0.1,1.4,0,2c0,0.2-0.1,0.6-0.2,0.7C448.7,293.2,448.7,295.2,448.5,296z"/>
	<path d="M415.3,173.6c0.5,1.4,1,2.6,1.5,3.9c0.1,0.3,0.2,0.6,0.2,1c0,0.2-0.2,0.3-0.3,0.5c0.7,0.7,1.7,2.1,2.2,2.9
		c-0.1,0.6,0.3,1,0.3,1.5c0,0.4-0.3,0.7-0.5,0.3c-0.1-0.1-0.1-0.2-0.2-0.3c-0.1-0.5,0-1.3,0-1.7l-1-0.1c0.1,0,0,0.2,0,0.3
		c0.1,0.6,0,1.6-0.2,2.2c-0.1,0.3-0.4-0.4-0.6-0.6c-0.3-1.7-0.5-3.3-0.6-5c-0.3-0.3-0.6-0.6-0.8-0.9c-0.2-1.2-0.3-2.3-0.1-3.5
		C415.1,173.9,415.2,173.8,415.3,173.6z"/>
	<path d="M422.1,191.4c1,0.6,1.8,2.2,1.9,3.2c0.2,1.9,0.1,3.9,0,5.9c0,0.3-0.3,0.5-0.4,0.8c-0.2-0.3-0.5-0.5-0.6-0.8
		c-0.1-0.1-0.1-0.3-0.1-0.5c0-2.6-0.1-5.3-0.8-7.8C422,191.9,422.1,191.7,422.1,191.4z"/>
	<path d="M318.2,387.6c0.1-0.5,0.2-1,0.3-1.6c0.1-8.6,0-17.3,0-25.9c0-0.7-0.2-1.3-0.4-2c3.1,0,6.2-0.2,9.3,0c1.1,0.1,1.7,1.1,2.3,2
		c0.1,8.3,0.1,16.6,0.1,24.9c0,1.1-1,1.9-1.8,2.4L318.2,387.6z M323.5,383.9c1.1,0.1,1.5,0.2,2.4-0.5v-21.2
		c-0.7-0.4-1.6-0.4-2.4-0.4c-0.6,0-1.2,0.6-1.2,1.2c0,6.7,0,13.3,0,20C322.6,383.6,322.9,383.9,323.5,383.9z"/>
	<path d="M120.4,387.6c-1.1-0.2-2-0.9-2.7-1.8c0.1-1.9,0-3.8-0.3-5.6h4.8c-0.4,0.9-0.6,1.9-0.5,2.9c0.7,0.8,1.6,1,2.7,0.7
		c0.5-0.4,0.8-0.4,0.8-1.2c0.2-2.3,0.1-4.6-0.1-6.8c0-0.3-0.2-0.7-0.4-0.9c-2.8,0-6.1,1-6.9-2c-0.5-2-0.3-9.7,0-12.2
		c0.2-1.2,0.9-1.5,1.7-2.2c2.3-0.2,4.5-0.4,6.8-0.2c1.1,0.1,2,1,2.6,2c0,1.8,0.1,3.7,0.5,5.5h-4.8c0.2-0.6,0.6-1.9,0.5-2.6
		c-0.1-0.3-0.2-0.7-0.4-0.9h-3c0,2.8-0.1,5.5,0,8.3c0.2,0.2,0.4,0.4,0.7,0.6c2.1,0,4.6-0.5,6,1.4c0.1,0.2,0.3,0.3,0.4,0.5
		c0.3,4,0.2,8.1,0.2,12.2c0,1.2-1.3,2-2.2,2.6C124.6,387.6,122.5,387.8,120.4,387.6z"/>
	<path d="M271.8,373.3c0.2-0.4,0-0.8,0-1.7l-0.8,0.2c0.1,0.8,0.1,1.3-0.1,2c0,0.2,0.1,0.3,0.1,0.5c-0.5,2.7-2.2,10.8-1.6,13
		c-0.2,0.1-0.4,0.3-0.7,0.3c-1.4,0.1-3,0-4.4,0c0.3-0.6,0.5-1.4,0.4-2.1c-1.1-6.3-2.1-12.7-3-19c-0.4-2.8-1-5.4-1.7-8.1
		c1.7-0.2,3.3-0.3,5-0.1c-0.9,2.1,1.3,13.1,1.9,16.3c-0.4,0.9-0.1,1.1-0.2,2.1l0.8-0.6c-0.1-0.3,0-2.4,0.1-2.7l1.5-14.9
		c1.4-0.2,3.5-0.7,4.7,0.1c-0.6,3.5,1.6,13.9,2.3,17.9c0.7-5.3,1.5-10.6,2.3-15.8c0.1-0.8-0.1-1.6-0.4-2.4c1.6-0.1,3.3-0.2,5,0.1
		c-0.5,1.1-0.8,2.5-1,3.7c-1.1,7.8-2.4,15.6-3.7,23.4c-0.1,0.6,0.1,1.5,0.3,2.1H274c-0.2,0-0.3-0.4-0.4-0.6c0.2-0.3,0.2-1.1,0.2-1.5
		C273.2,381.6,272.5,377.7,271.8,373.3z"/>
	<path d="M418.7,184.2c0.1,0.2,0.2,0.5,0.3,0.7c0.1,0.5,0,1.4,0,1.9l0.8,0.3c0.1-0.5,0.2-1,0.4-1.5c0.5,0.6,0,1.3,1.1,2.2
		c-0.1,0.2-0.4,1.3-0.4,1.5c-0.1,0.6-0.4,1.2-0.6,0.6l-0.8-2.4l-0.9,0.5C418.5,186.7,418.3,185.4,418.7,184.2z"/>
	<path d="M376,302c-0.6-11.2-0.6-11.6-0.7-12c-0.3,1.5-0.6,3.6-0.7,5.2c-0.1,2.1,0,4,0.2,6c-0.2-0.2-0.4-0.4-0.5-0.6
		c-0.3-0.4-0.3-1-0.3-1.5c0.2-1-0.5-5.8-0.6-7.1c-0.1-0.6-0.2,0.2-0.2,0.8c-0.1,2.2-0.2,4.4-0.3,6.6c-0.1-0.2-0.2-0.5-0.3-0.7
		c-0.2-1.3-0.1-3-0.4-4.4c0.2-0.6,0.4-1.7,0.4-2.4c-0.1-0.7-0.2-1.3-0.4-2c0-0.2,0-0.3,0-0.5c0.1-0.3,0.3-0.7,0.4-1
		c0.1-1.1,0.1-2.3,0.1-3.4c0-0.8-0.1-1.7-0.2-2.6l-0.9-0.1c-0.1-0.3-0.3-0.9-0.3-1.2c-0.1-3.4-0.2-6.9-0.3-10.4
		c0-0.4-0.3,0.7-0.5,1.1c-0.5,1.1-0.6,2.3-0.4,3.4c0,0.7,0,1.3,0,2c0,0.3-0.2,0.5-0.2,0.8c-0.2-0.5-0.4-1.2-0.6-1.7
		c0-17.2-1-34.7-0.5-51.7l-0.7-1.1c0.1,0.9,0,1.9-0.4,2.7c-0.1-0.7-0.4-2.8,0.1-3.6c-0.1-0.3-0.3-0.5-0.4-0.8c-0.4,1-0.6,2.1-1,3
		c-0.1-0.3-0.3-0.5-0.3-0.8c-0.1-3.6,0-7.2,0-10.7c0-0.3,0-0.5-0.2-0.7c-1.6-2-3.6-3.9-5.5-5.6c1.9-2,3.8-4,5.6-6
		c0-31.2,0.1-62.4,0-93.6c0-0.8,0-0.9-0.4-1.5c-1.4-2-3-3.8-4.4-5.9c-0.2-0.2,0-1.2,0-1.4c0.2,0,0.5,0,0.8,0c9.7,0,19.4,0,29,0
		c0,7.2-0.3,14.9,0.5,22c4.9,11.1,10,22.1,14.9,33.2c0.5,1.2,0.7,2.1,0.8,3.4c0,0.8,1.1,1.3,1.6,2c2,4.7,4,9.5,6.1,14.2
		c0.1,0.1,0,0.3,0.4,0.5c-0.1,0.2-0.1,0.3-0.2,0.5c-0.1,1.2-0.1,2.3,0.1,3.5c0.3,0.3,0.6,0.6,0.8,0.9c0.2,1.7,0.4,3.3,0.6,5
		c0.2,0.2,0.5,0.9,0.6,0.6c0.2-0.6,0.2-1.6,0.2-2.2c0-0.1,0.1-0.3,0-0.3l1,0.1c0,0.5-0.1,1.2,0,1.7c0.1,0.3-0.1,0.6,0.2,0.8
		c-0.4,1.2-0.2,2.6-0.3,3.9l0.9-0.5l0.8,2.4c0.2,0.6,0.6,0,0.6-0.6c0-0.2,0.3-1.3,0.4-1.5c0,0.6,0.1,0.8,0.2,1
		c0.2,0.6,0.3,1.8,0.7,2.7c0,0.3-0.2,0.5-0.1,0.8c0.7,2.5,0.9,5.2,0.8,7.8c0,0.2,0,0.3,0.1,0.5c0.2,0.3,0.4,0.5,0.6,0.8
		c0.3,0.3,0.3,0.5,0.5,1.1c-0.8,0.1-0.3,2.8-0.1,3.4c0.1,0.5,0.3-0.9,0.4-1.4c0.1-0.3,0.1-0.9,0.2-1.2c0.3-0.9,0.5,0.3,0.3,1.2
		c0,0.2,0,0.3-0.1,0.5c-0.6,0.6-0.1,3.8-0.1,4.6c0,0.5,0.5-0.8,0.8-1.2c0-1.3,0.2-3.2,0.8-4.4c0-0.2,0-0.3,0-0.5
		c0-0.1,0.1-0.2,0.2-0.2c0.2-0.2,0.3-0.3,0.5-0.4c0.4-0.3,0.4,0.2,0.2,0.7c-0.1,0.2-0.5,1.6-0.6,2c0,0.3,0,0.6,0,0.9
		c0.6,0.2,0.8,1,0.8,1.6c0,0.5,0,1.7-0.1,2c-0.1,0.2-0.3,0.3-0.4,0.5c0.6,0.6,0.4,3.1,0.3,3.9c-0.1,0.7,0.1,1.5,0.3,0.9
		c0.2-0.5,0.3-1.1,0.5-1.6c0.2,0.5,0.4,1.2,0.4,1.7c0,3-0.1,5.9-0.1,9h0.9c0.2,0.1-0.2-0.4-0.3-0.7c-0.3-0.6,0-2.1,0.1-2.7
		c0.1,0.4,0.5,2,0.5,2.7c0.1,3-0.1,6.4-0.1,9.4h0.7c0.2,0.1,0-0.4,0.1-0.7c0.3-3.9,0.5-11.9-0.1-15.6c0.1-0.2,0.2-0.5,0.4-0.7
		c0.1,0.2,0.3,0.5,0.3,0.7c0.1,6.2,0.1,12.4,0.1,18.6c0.2,0,0.4,0.1,0.6,0.1c-0.2,0.8,0,1.5,0.2,2.2c0.2,0.9,0.3,1.8,0.8,1
		c0.8-1.4,0.7-1.4,0.6-2.9c-0.4-6.2-0.2-12.7-0.8-18.6c0-0.2,0.1-0.3,0.1-0.5c0-0.1-0.1-1.3-0.9-3.2c0.9,0.7,1.3-1.7,0.7-2.7
		c-0.1-4.8,0-9.9-0.4-14.6c0-29.8-0.1-59.6,0-89.3c0-1.1-3.8-5.7-4.6-6.8c-0.2-0.2-0.2-0.6-0.3-0.9c0.2-0.2,0.4-0.4,0.6-0.6
		c0.2,0,0.3,0,0.5,0c11.1,0.1,22.1,0,33.2,0c0.1,0.9,0.1,1.3-0.3,2c-1.3,1.9-2.8,3.7-4.1,5.6c0.8,31.4,0.4,63,0.4,94.5
		c0,0.4,0,0.7,0.2,1c1.6,1.9,3.5,3.5,5.2,5.3c-1.8,1.8-3.6,3.6-5.3,5.5c-0.1,0.2-0.2,0.8-0.2,1c0,20.4-0.3,40.7-0.2,61
		c-0.2,0.2-0.4,0.5-0.6,0.7c-0.2-0.8-0.2-2.1-0.1-2.9l-0.7-0.1c0.2,0.1,0,0.5,0,0.8c-0.1,3.3-0.3,6.6-0.7,9.9
		c-0.1-0.2-0.2-0.4-0.3-0.7c0-0.2,0-0.3,0-0.5c0.3-2.8,0.2-5.9,0-8.8c0-0.4-0.3,0.6-0.5,1s0,0.8-0.1,1.2c0-0.9,0-1.8-0.1-2.7l-0.8-1
		c0,0.6,0,1.5-0.1,2.2c-0.5-0.8,0.1-1-0.8-2.2c0-0.3,0-1.8,0.1-2c0.2-1,0.4-2.3,0.3-3.4c0-0.6-0.3-1.8-0.5-2.4
		c-0.2-0.7-0.1-1.4,0.3-0.8c0.2,0.2,0.3,0.4,0.5,0.7l0.2-0.9c-0.3-0.2-0.8-0.4-0.8-0.8c-0.2-1.9-0.4-4.3-0.8-6.1
		c-0.1,0.5-0.3,1-0.5,1.5c-0.2,0.6-0.3-0.2-0.3-0.8c0.2-1.6,0.7-5.7,0.3-7c-0.2-0.5-0.4,0-0.5,0.5c-0.1,0.4-0.2,1.1-0.3,1.6
		c-0.2,1.9-0.2,4,0.1,5.9c-0.1,0.2-0.3,0.3-0.4,0.5c-0.3,1.9-0.3,3.7-0.7,5.6h0.9c-0.2,0.9-0.4,1.5-0.9,2.3
		c-0.1,0.1-0.1,0.3-0.2,0.5c-0.5,4.5-0.9,9.1-0.9,13.7c0,0,0,0.9-0.1,0.9c-0.5,0.6-0.9,2.3-0.9,3c0,1.4-0.2,3,0.3,4.3
		c-0.1,0.2-0.3,0.3-0.4,0.5c-0.1,1.5,0,2.9,0.1,4.4l-0.6-1.2l-0.7-0.5c0.1,3.4,0.1,6.7-0.2,10.1c0,0.4-0.4-0.7-0.5-1.1
		c-0.1-0.5,0-1.2-0.1-1.7l-1.1-0.1c-0.1-0.4-0.4-0.8-0.7-1.1c0-0.2,0.1-0.3,0.1-0.5c-0.1-1.5-0.1-3-0.2-4.6l-0.8-0.3
		c-0.2-1.1,0.2-0.8-0.2-1.9c-0.1-0.9,0-2,0.3-3.2c0.3,0,0.2-0.7,0.2-1.2s-0.3-1-0.5-1.5c-0.2,0.2-0.4,0.5-0.7,0.7
		c-0.2-0.1-0.3-0.3-0.5-0.4c-0.9,2.2-0.7,3.3-0.7,5.6c-0.1,0.7-0.4,1.5-0.7,2c-0.2,0.3-0.2-0.7-0.2-1.1c-0.1-0.3-0.1-1.2-0.3-1.7
		c1-0.4,1-3.8,0.9-4.7c-0.1-0.7-0.3-1.5-0.4-0.8c-0.1,1.1-1.1,5.1-0.7,5.7c0,0.2,0,0.3,0,0.5c-0.1,0.3-0.2,0.5-0.3,0.8
		c-0.1-0.3-0.2-0.5-0.2-0.8c0.1-1.8,0-3.9-0.3-5.6c-0.1-0.2-0.1-0.5-0.5-0.9c0.2-0.6,0.1-1.9,0-2.8l-0.5-0.2
		c-0.5,1.5-0.4,3.2-0.2,4.7l-0.2,2c0.3,0.2-0.3-0.6-0.3-1c-0.1-3.1-0.4-5.1-0.8-8c-0.1-0.5-0.3,0.1-0.2,0.7c0.1,2.1-0.2,4.6-1.2,6.5
		c-0.1,0.2-0.2-0.4-0.3-0.7c0-0.2,0-0.3,0-0.5c-0.2-1.8-0.2-4.1,0-6h-0.5l-0.2,2.7c-0.1-0.3-0.3-0.7-0.4-1c0-0.2,0-0.3,0-0.5
		s0-0.3-0.7-1.4c1,0,0.9,0,0.6-0.9c0.7-0.6,1.1-3.2,1.1-4.1c0-2.5,0-5.1-0.1-7.6c-1,0.7-1,1-1,2.2c0,3.4,0.2,6.3-0.4,9.8
		c0,0.2-0.2,0.4-0.2,0.6c-0.1-0.2-0.3-0.4-0.4-0.6c-1.8-6.1-5.2-12.5-7.7-18.6c-0.1-0.2,0-0.3,0-0.5c0.2-0.6,0.4-1.1,0.9-1.7
		c-0.2-1.1-0.5-1.8-0.9-2.8c-0.1-0.2-0.4,0-0.7,0c-0.3,0.5-0.3,1.3-0.5,1.9c-0.1-0.3-0.3-0.6-0.4-0.9c-0.2-0.4-0.1-1.4-0.1-1.9
		c-0.4-0.2-0.5-0.3-0.8-0.6c-0.1-1.2-0.2-2.7-0.2-3.9c-0.1-0.5-0.6-1.1-1-1.3c-0.2,0.5-0.3,1.1-0.5,1.6c-0.2-0.2-0.3-0.5-0.5-0.7
		c-0.6-1.3-1.2-2.6-1.8-3.9c-0.2-0.3-0.4-1.1-2.8-7.3c2.7,4.6,2.2,4.2,2.3,3.2c-0.3-0.1-0.5-0.2-0.8-0.3c0.1-1.4-0.2-2.5-1.6-3
		c0-0.2,0.1-0.3,0.1-0.5c0.1-0.3,0.1-1.1,0.1-1.5c-0.2-1.1-0.9-3.3-1.4-4.4c-1.7-3.6-3.8-7.6-5.4-11.2c-2.4-5.9-4.8-11.6-6.9-17.7
		l-0.8-0.1c0.2-0.5,0.3-1.2,0.2-1.7c-0.6-2.1-1.4-3.1-1.8-5.5l-0.5,0.7c-0.3-1.2-0.5-2.5-0.5-3.7l-0.9,0.7c-0.1-0.2-0.3-0.3-0.4-0.5
		c0.3-0.5,0.1-3.7,0-4.4c-0.4-1-1.2-2.3-1.3-3.4c0-2.4-0.1-4.7-0.4-7.1c-0.1-0.6-0.2,0.2-0.2,0.7c0.1,1.6,0,3.4-0.7,4.9
		c-0.2,0.1-0.4,0.3-0.6,0.3c-0.1-0.1-0.1-0.2-0.2-0.3c0-1.1,0-2.4-0.8-3.8c0.1-0.2,0.2-0.4,0.3-0.6c0.2-0.6,0.2-2.3,0.1-2.9
		c-0.1-0.8-0.4-1.8-0.7-2.4c-0.1-0.2-0.5-0.7-0.6-0.8c-0.2,0-0.5,0.1-0.5-0.1c-0.1-0.4-0.2-0.7-0.2-1.1c-0.1-0.7-0.7-1.4-0.7-0.7
		c-0.1,3.5-0.2,7,0.3,10.4c0.1,0.3,0.1,0.5,0.2,0.8c0.2,2.2,0.4,4.7,0.5,7c0,7.1,0.9,20.7-0.4,27.5c-0.1,1.3-0.2,3-0.3,4.8
		c0.7,0.3,0.5,3.6,0.5,4.4c-0.1,13.9-0.4,28.1-0.1,42c-0.1,9.8,0,19.5-0.2,29.3c0,0.1-0.1,0.2-0.1,0.2c-0.2,0.3-0.3,1-0.5,1
		c-0.1-0.2-0.2-0.5-0.3-0.7c-0.2-1.5-0.2-2.8-0.4-4.4c-0.1-1.3-0.1-2.7-0.1-3.9c0.1-0.2,0.3-0.3,0.3-0.5c-0.1-0.5-0.3-0.9-0.4-1.5
		c-0.3-13.1-0.4-26.2-1-39.3h-0.5c0.2,0.1,0,0.5,0,0.8c0.1,3.2,0,6.3-0.2,9.5c0,0.6-0.2-0.2-0.3-0.7c-0.1-0.8-0.1-1.6-0.1-2.4
		c-0.1-4.6,0.2-9.3,0.1-14h-0.8c0.2,0.1,0,0.5,0,0.8c0.1,11.2-0.7,22.6-0.2,33.7c0,0.6-0.1,1.3-0.3,0.8c-0.1-0.2-0.3-0.8-0.5-1
		c-0.1-0.1-0.1-0.1-0.2-0.2c0-0.2,0-0.3,0-0.5c0.5-5.8,0.2-11.3,0.4-17.1c0-0.7-0.4-2.2-0.4-2.9c-0.1-3.6,0-7.2,0-10.7
		c0-0.5-0.1-1-0.2-1.4c-0.1,0.2-0.6,1.5-0.6,1.9c-0.2,3.4,0.1,6.9-0.1,10.3c-0.3,4.4-0.9,8-0.9,12.7c0,0.6-0.2,1.2-0.4,1.8
		c-0.1-0.4-0.3-0.6-0.4-0.9c0.2-0.5,0-1.1-0.2-1.5c-0.4,1.1-0.6,2.1-0.5,3.3c0.2-0.1,0.4-0.2,0.5-0.2c0.2,0.3,0.1,0.6,0.3,0.9
		c0,0.2,0,0.4-0.1,0.5c-0.3,0.2-0.5,0.6-0.4,1c-0.2,1.8-0.1,3.6,0,5.4c-0.3,1.2-0.6,3.2-0.5,4.4c-0.1,1.2-0.1,2.3-0.2,3.5
		c-0.3-0.1-0.7-0.3-1-0.4c-0.1,0-0.1,0.2-0.2,0.3c-0.3,0.4-1.6,3-1.8,3.8c-0.2,1.6-0.4,3.5-0.2,5c0,1.8,0,3.6,0.1,5.4
		c0,0.2,0,0.3,0,0.5c-0.1,0.3-0.2,0.6-0.4,0.9c-0.2-1.3-0.9-5.3-0.6-6.5c-0.3,0.4,0.1,0.7-0.8,1.7c-0.1,3.3-0.2,6.6-0.3,9.8
		c-0.2,0.2-0.4,0.7-0.7,0.7c-0.1-0.2-0.2-0.4-0.2-0.7C376,303.7,376,302.8,376,302z"/>
	<path d="M396.9,191.2c0.1,0.2,0.3,0.3,0.4,0.5l0.9-0.7c0,1.2,0.2,2.5,0.5,3.7l0.5-0.7c0.5,2.5,1.2,3.4,1.8,5.5
		c0.1,0.5,0.1,1.2-0.2,1.7l0.8,0.1c2.1,6,4.6,11.7,6.9,17.7c1.6,3.6,3.7,7.6,5.4,11.2c0.5,1.1,1.1,3.3,1.4,4.4c0,0.3,0,1.1-0.1,1.5
		c-5.3-9.4-9.3-20.3-13.7-30.3c-0.1-0.8-0.2-2.1-0.1-2.9c-0.7-0.4-1.6-0.8-2-1.7c-0.3-1.8-0.3-3.7-0.6-5.7l-1.1-0.6
		c0.1-0.6,0.1-1.2,0.1-1.9l-0.8-0.8C397,192,396.9,191.6,396.9,191.2z"/>
	<path d="M216.1,387.6c-1.2-0.2-1.6-1.1-2.3-2c0-8.3,0.2-16.6,0-24.9c0-1.2,1.3-2.3,2.3-2.4c1.6-0.2,4.7-0.3,6.3,0
		c1.4,0.4,1.5,0.7,2.4,1.9c0.1,8.3,0.2,16.6,0.1,24.9c0,1.1-1.4,2.4-2.4,2.6C220.3,387.7,218.2,387.8,216.1,387.6z M220.5,383.9
		c0.2,0,0.4,0,0.6-0.1c0-7.1,0.1-14.2,0-21.2c0-0.2-0.2-0.4-0.3-0.6c-1.5,0-1.9,0-3.4,0.3c0,6.9-0.1,13.9,0,20.8
		c0,0.3,0.4,0.7,0.7,0.8C218.9,384,219.7,384,220.5,383.9z"/>
	<path d="M368.4,387.6c-1.1,0-1.8-1.3-2.3-2.1c0-8.3,0-16.6,0-24.9c0-0.2,0-0.5,0-0.7l1.9-1.8c2.2,0,4.5-0.1,6.7,0.1
		c0.9,0.1,2.1,1.2,2.4,2c0,8.3-0.1,16.5,0,24.8c0,0.9-1.3,2-2,2.5C373,387.6,370.7,387.7,368.4,387.6z M372.8,383.9
		c0.2,0,0.4,0,0.6-0.1c0-7.1,0.1-14.2,0-21.2c0-0.2-0.2-0.4-0.3-0.6H370c-0.2,0.5-0.4,1-0.4,1.6c0,6.3,0,12.7,0,19
		c0,0.4,0.2,0.9,0.3,1.2C370.9,384,371.8,384,372.8,383.9z"/>
	<path d="M478.8,372.1c-0.2,0.6,0.2,1.7,0.5,2.5c0.2,0.6,0.2-0.2,0.3-0.8c0-0.2,0-0.3,0-0.5c-0.1-4.4-0.1-8.8-0.1-13.2
		c0-0.4-0.2-0.7-0.4-1l-0.2-0.9c1.5-0.1,3.1-0.1,4.6,0.1c-0.2,0.6-0.4,1.2-0.4,1.8c-0.1,8.5,0,16.9,0,25.4c0,0.7,0.2,1.4,0.4,2.1
		h-4.2l-4-15.1c-0.2,0.4-0.4,0.8-0.4,1.3c0.1,3.3-0.5,11.1,0.5,13.8H471c-0.1-0.2-0.2-0.4-0.3-0.6c0.1-0.5,0.2-0.9,0.2-1.5
		c0.1-5.8,0.9-22.7-0.4-27.3l4.2-0.1c0.1,0.3,0.2,0.6,0.3,1C476.4,363.4,477.5,367.6,478.8,372.1z"/>
	<path d="M204.9,212.4c0.1,0.1,0.3,0.3,0.4,0.4l-0.1,18.2l0.7,0.2c0,1.7-0.3,3.3-0.7,4.9c0.1-0.6-0.1-0.8-0.1-1
		c-0.3-1.6-0.4-3.3-0.4-4.9c-0.1-5.7,0-11.4,0-17.1C204.7,212.9,204.8,212.7,204.9,212.4z"/>
	<path d="M431.4,213.4c-0.1-0.1-0.2-1.1-0.3-1.2c-0.3-0.5-0.7-0.7-1.2-0.9c0-0.7-0.2-2.4-0.3-3.1l0.8-0.2c0.2,0,0.1,0.5,0.1,0.7
		s0.1,0.3,0.1,0.5s-0.2,0.3-0.3,0.5c0.5,0.4,0.9,1.1,1.1,1.7c0.2-0.2,0.3-0.3,0.7-0.7C432.7,211.7,432.3,214.1,431.4,213.4z"/>
	<path d="M382.8,276.2c-0.1-1.8-0.2-3.5,0-5.4c-0.1-0.4,0.1-0.8,0.4-1c-0.1,0.4,0.1,0.7,0.1,1c0.3,2.2,0.5,4.6,0.5,6.9
		C383.3,276.3,383.4,276.5,382.8,276.2z"/>
	<path d="M424,202.4c0.3-0.2,0.6-0.3,0.9-0.5c0.2-0.1,0.3,0.4,0.5,0.6c-0.2,0.3-0.1,1.2,0,1.5c0,0.1,0.1,0.2,0.1,0.3
		c0.2,0.1,0.4,0.1,0.7-0.3c-0.6,1.2-0.8,3.1-0.8,4.4c-0.3,0.4-0.8,1.7-0.8,1.2c-0.1-0.8-0.5-4.1,0.1-4.6c0-0.2,0.1-0.3,0.1-0.5
		c0.1-0.9,0-2.1-0.3-1.2c-0.1,0.3-0.1,0.9-0.2,1.2c-0.1,0.5-0.3,1.8-0.4,1.4C423.7,205.2,423.3,202.5,424,202.4z"/>
	<path d="M430.4,215.9c-0.1-0.1-0.3-0.1-0.3-0.3c0.3-0.7,0.2-1.8,0-2.4c-0.1-0.4,0.2-0.7,0.4-0.4c0.1,0.2,0.2,0.4,0.9,0.6
		c-0.1,0.3-0.2,0.5-0.2,0.8c0.1,1.2,0.1,2.8,0,4l1-1.1c0.6,5.9,0.4,12.3,0.8,18.6c0.1,1.5,0.2,1.5-0.6,2.9c-0.5,0.8-0.5-0.1-0.8-1
		c-0.2-0.8-0.4-1.4-0.2-2.2c-0.2,0-0.4-0.1-0.6-0.1c0-6.2,0-12.4-0.1-18.6C430.7,216.4,430.5,216.1,430.4,215.9z"/>
	<path d="M390.9,215.3c0.3,0.2,0.4,0.6,0.7,0.9c-0.1,1.3-0.2,2.6-0.2,3.9c0.2,15.1,0.2,30.3,0.1,45.4c0,0.2-0.1,0.5-0.4,1
		c-0.4-13.9,0-28,0.1-42c0-0.8,0.2-4.1-0.5-4.4C390.7,218.3,390.8,216.5,390.9,215.3z"/>
	<path d="M85.2,218.3c7.8-0.1,15.6,0,23.4,0c0.2,0.1,0.4,0.3,0.6,0.4c0,0.5,0,0.9,0,1.4c0,16.1,0.3,32.2,0,48.3c0,0.1,0,0.9,0.1,1
		c0.3,0.3,0.5,0.6,0.8,1c0,0.2,0,0.3,0,0.5s-0.1,0.3-0.2,0.5c-0.4-0.2-0.4-0.1-0.5,0c0,4.8,0.4,9.3,0.3,14.2c-0.2-0.2-0.9-1-0.9-1.5
		c0.2-21.8,0-43.5,0.1-65.3c-7.6,0-15.2,0.1-22.8,0C85.9,218.7,85.6,218.4,85.2,218.3z"/>
	<path d="M426.5,203.2c-0.1-0.3-0.2-0.5-0.3-0.8c-0.1-0.5-0.1-1-0.1-1.5c0-0.7,0.3-1.5,0.4-0.8c0.1,0.9,0.9,2.4,1.7,3
		c0.2,3.4,0.4,6.6,0.5,10.1l0.6,0.8c-0.2,0.9-0.4,4.4-0.3,5.3l0.9-0.1c-0.2-0.9-0.3-1.5,0.2-2.6c0.6,3.7,0.4,11.8,0.1,15.6
		c0,0.2,0.2,0.7-0.1,0.7h-0.7c0-3.1,0.2-6.4,0.1-9.4c0-0.7-0.4-2.3-0.5-2.7c-0.1,0.6-0.4,2.1-0.1,2.7c0.1,0.2,0.5,0.7,0.3,0.7h-0.9
		c0-3,0.1-5.9,0.1-9c0-0.5-0.2-1.2-0.4-1.7c-0.2,0.5-0.3,1.1-0.5,1.6c-0.2,0.7-0.4-0.2-0.3-0.9c0.1-0.8,0.3-3.3-0.3-3.9
		c0.1-0.2,0.3-0.3,0.4-0.5s0.1-1.5,0.1-2s-0.2-1.3-0.8-1.6c0-0.3,0-0.6,0-0.9c0-0.4,0.5-1.8,0.6-2c0.2-0.5,0.2-1-0.2-0.7
		C426.8,202.9,426.7,203.1,426.5,203.2z"/>
	<path d="M117,261.7c0.2-0.4,0.4-0.7,0.4-1.1c-0.2-2.2-0.5-4.6-0.6-6.8c0-0.4,0.2-1.4,0.3-1.1c0.4,1.6,0.8,3.3,0.8,5
		c0.2,5.8,0.4,11.7,0.3,17.6c0,0.9,0.7,2.9,1.2,3.7c-0.4,1.5-0.3,2.8,0.1,4.4c-0.1,0.1-0.1,0.7-0.6,1.2c0.1,2,0,3.9,0.1,5.9
		c0.2,3.1,0.6,6.2,0.8,9.3c0.2-0.3,0.6-1.3,0.6-1.3c0.2-0.1,0.3,0.4,0.5,0.6c-0.3,0.8,0.2,1.4,0.5,1.9l-1,0.5
		c-0.2,0.1-0.3-0.3-0.4-0.4c-0.3-0.3-0.4-0.7-0.5-1.1c0-0.2-0.2,0.5-0.2,0.7c0.2,0.5,0,1.8,0,2.2c-0.1,0.5-0.6-0.8-0.6-1.2
		c-0.3-7-0.5-14.4-0.2-21.5c-0.8-0.2-0.7-0.8-0.7-1.5c0-0.3,0-0.7,0.2-1c-0.3-4.5-0.3-9.2-0.3-13.7l-0.8-0.3
		C116.7,263,116.7,262.2,117,261.7z"/>
	<path d="M415.2,236.6c1.4,0.5,1.6,1.6,1.6,3c0.2,0.1,0.5,0.2,0.8,0.3C417.4,240.8,417.8,241.2,415.2,236.6z"/>
	<path d="M366.3,243.5c0.1,0.2,0.3,0.3,0.4,0.5c0,10.7-0.1,21.5,0,32.2c0.1,4.1,0.5,8.2,1.2,12.2c0.1,0.4,0.2-0.1,0.2-0.5
		c0.1-2.1,0.2-4.2,0.1-6.3c-0.2-2.7-0.8-5.7-0.9-8.3c-0.4-15.4-1-31-0.8-46.4c0-0.2-0.1-0.4-0.1-0.6c-0.3-0.7-0.5-1-0.5-1.3
		c0.2-0.1,0.3-0.2,0.5-0.3c0.4-1,0.6-2,1-3c0.1,0.3,0.3,0.5,0.4,0.8c-0.5,0.8-0.2,2.8-0.1,3.6c0.4-0.8,0.4-1.8,0.4-2.7l0.7,1.1
		c-0.5,17.1,0.5,34.6,0.5,51.7c0.1,0.5,0.3,1.3,0.6,1.7c0.2,0.7,0.2,1.6,0.2,2.2c-0.2,3.8-1.2,9.2-1.6,13.2
		c-0.2,0.5-0.3,0.6-0.8,0.8c-0.5,2.6-0.8,4.6-1,7.3c0,0.4-0.4-0.8-0.4-1.3c0.3-18.5-0.2-37.1,0-55.7
		C366.2,244.1,366.3,243.8,366.3,243.5z"/>
	<path d="M536.2,248.8c-0.2,0.2-0.5,0.3-0.5,0.5c0,3-0.1,5.9-0.2,8.8c-0.2,0.2-0.4,0.5-0.6,0.7c-0.1-0.1-0.1-0.2-0.2-0.2
		c0.5-6.8,0.5-14.1,0.5-21c0-0.5,0.1-1.1,0.2-1.6c0.3-0.1,0.8-0.6,0.8-0.3C536.1,240.2,536.1,245,536.2,248.8z"/>
	<path d="M423.1,255.6c0.2-0.6,0.1-1.4,0.5-1.9c0.2,0,0.6-0.2,0.7,0c0.4,1,0.7,1.7,0.9,2.8c-0.5,0.5-0.7,1-0.9,1.7
		c-0.2-0.2-0.7-1.5-1.2-2C423.1,256,423.1,255.8,423.1,255.6z"/>
	<path d="M536.2,253.7c1.2,2.9,0.7,16.2,1.1,20.5c0.1,1.8,0.3,7.8-0.2,9.3c-0.1,0.2-0.3,0.3-0.4,0.5c0.1-0.6,0-0.8,0-1
		c-0.2-4.2-0.2-8.5-0.1-12.7c-0.1-0.2-0.3-0.3-0.4-0.5c-0.1-0.5-0.1-1-0.2-1.5c-0.2-4.6,0.1-9.1,0.1-13.7
		C536,254.4,536.1,254,536.2,253.7z"/>
	<path d="M420.2,248.6c0.2-0.5,0.4-1.1,0.5-1.6c0.3,0.3,0.9,0.9,1,1.3c0,1.2,0.1,2.7,0.2,3.9c-0.4-0.6-0.8-1.4-1.4-2
		c0.1-0.3,0.2-0.6,0.4-0.9C420.6,249.1,420.4,248.8,420.2,248.6z"/>
	<path d="M290,261.5c-0.1-0.2-0.2-0.3-0.3-0.5c0.2-0.4,0.5-1.9,0.6-2.3c0.1-0.5,0.3,0,0.5,0.5c0.1,0.3,0.1,0.5,0.1,0.8
		c0.1,3.1,0.1,6.2,0.1,9.3c-0.3-0.6-0.4-0.8-0.4-1c-0.1-2.3-0.2-4.6-0.1-6.8C290.4,261.5,290.2,261.5,290,261.5z"/>
	<path d="M114.8,263c0.1-1.2-0.1-4.1-0.4-5.4c-0.2-1.9,0.5-6.1,0.4-8.8c0-0.7,0.1-1.3,0.2-2c0.2-0.1,0.5-0.2,0.7-0.2
		c0.1-0.5-0.1-0.6,0.3-1.1c0.2-0.3,0.4-1.2,0.5-0.9c0.6,2.7,0.2,4.2,0.5,6.8c0,0.1,0,0.3,0,0.2l-1.2-0.2c0.3-1.6,0.4-2.6,0.1-4.2
		c-0.1-0.5-0.2,0.1-0.2,0.7c-0.1,1,0,2.4,0.1,3.4c0.6,3.3,0.8,6,0.9,9.3c-0.4-0.3-0.7-0.2-0.7,0c-0.2,1,0,2.2,0.1,3.2
		c-0.2,0-0.4,0-0.6,0C115.6,263.5,114.8,263,114.8,263z"/>
	<path d="M212.7,279.3c0.1-0.2,0.2-0.4,0.2-0.7c-0.2-2-0.1-4.3,0.2-6.2c0.4,1.4,0.5,2.8,0.8,4.3c-0.1,2.4-0.1,4.8-0.2,7.1l-0.8,0.3
		c0.1-1.2,0.1-2.2,0-3.4l-0.5-0.5C212.5,279.8,212.6,279.5,212.7,279.3z"/>
	<path d="M206.6,266.4c-0.1-0.6-0.2-0.8-0.2-1.5c0-0.1,0.6-1.3,0.6-1.5c-0.6-3.4-0.1-9.3,0.3-12.8l0.6,1.6
		c-0.5,10.4,0,20.4-0.1,30.8c-0.5-0.1-0.6-0.3-0.7-0.5c-0.2-5.3-0.1-10.8-0.1-16.1C206.9,266.4,206.7,266.4,206.6,266.4z"/>
	<path d="M270.6,244.9c0.1,0.2,0.3,0.3,0.3,0.5c0.3,1.8,1.2,5,1.3,6.3c0.1,7.6-0.6,15.2-0.1,23c0.1,0.9-0.1,1.6-0.3,2.5
		c-0.4,0.2-0.7,0.5-0.8,0.9c-0.1,0.2-0.2,0.3-0.3,0.5c0-0.4,0-0.7-0.1-1c0.3-6.9-0.2-13.6,0-20.5c0-0.5,0.1-1.1,0.2-1.6
		c0.1-0.1,0.2-0.3,0.3-0.4c0.1-0.1,0-0.3-0.1-0.5c-0.2-2.9-0.4-5.9-0.5-8.8C270.5,245.6,270.6,245.2,270.6,244.9z"/>
	<path d="M230.2,234.8c0.1,0.3,0.2,0.5,0.2,0.8c0.1,5,0.2,10.1,0.1,15.1c-0.1,3.9-0.7,7.7-0.5,11.7c0,0.2-0.2,0.4,0,1
		c-0.8-1.2-1.2-4.7-1.1-6.3c0.1-1.4,0.8-3.7,0.9-4.9c0.4-5.7,0.2-11.4,0.2-17.1C230.2,235,230.3,234.8,230.2,234.8z"/>
	<path d="M376.2,305.2c0.7-0.3,0.9,0,1,0.3s0,0.7-0.1,1l-0.5,1.1c-0.5-0.7-0.6-1.3-0.4-2.1C376.2,305.4,376.2,305.3,376.2,305.2z"/>
	<path d="M113.3,275.2c-0.1-0.2-0.2-0.5-0.3-0.7l0.6-0.7c0.1-2.3,0.1-4.6,0-6.8c0-0.3,0.1-0.6,0-0.8h0.8c-0.1,3.8-0.2,7.7,0,11.5
		c0,0.2,0.1,0.4,0.2,0.6l0.2,1.2l-0.9-0.1c-0.1-0.2-0.2-0.5-0.2-0.7C113.9,276.8,114,276.3,113.3,275.2z"/>
	<path d="M253,299.1c-0.2,0.2-0.4,0.3-0.5,0.5c-0.1,0.3-0.2,0.5-0.6,0.5c0.1-2.8,0.1-5.5,0.2-8.3c0-0.4,0.2-1.5,0.3-1.1
		C252.5,293.9,252.4,296.1,253,299.1z"/>
	<path d="M539,270.8c-0.1-1.3-0.2-2.6-0.1-3.9c0.1-0.9,0.7-2.3,1-2.9c0.3,3,0.6,5.3,0.3,8.3c0,0.2,0,0.5,0.1,0.7
		c-0.6-0.2-0.7-0.5-0.7-0.7C539.8,271.5,539.6,271,539,270.8z"/>
	<path d="M281,283.2c0.1,0.2,0.2,0.5,0.3,0.8c0,1.8,0.1,3.6,0.4,5.4c0.1,0.5-0.4,0.9-1,1C280.9,287.7,280.8,285.5,281,283.2z"/>
	<path d="M534.4,266.6c0.1-0.2,0.2-0.5,0.2-0.7c0-1.3,0.1-2.5,0.2-3.7c0.1,0.3,0.2,0.5,0.3,0.8c0,4.4-0.2,8.8,0,13.2
		c0,1,0.5,1.9,0.5,2.9c0,1.2-0.2,2.2-1.2,3.1c0-4.1,0.5-9.4-0.3-13.3C534,268.1,534.2,267.3,534.4,266.6z"/>
	<path d="M448.2,289.8c-0.3-0.8-0.1-1-0.3-1.5c-0.1-0.2-0.2-0.4-0.4-0.5c-0.5-1.4-0.3-2.9-0.3-4.3c0-0.7,0.4-2.4,0.9-3
		c0-0.1,0-0.9,0.1-0.9c0-4.6,0.4-9.2,0.9-13.7c0-0.2,0.1-0.3,0.2-0.5c0.5-0.8,0.7-1.3,0.9-2.3h-0.9c0.4-1.9,0.3-3.7,0.7-5.6
		c0-0.2,0.2-0.3,0.4-0.5c-0.3-1.9-0.4-4-0.1-5.9c0.1-0.5,0.2-1.1,0.3-1.6c0.1-0.6,0.4-1.1,0.5-0.5c0.4,1.3-0.1,5.4-0.3,7
		c-0.1,0.6,0.1,1.3,0.3,0.8c0.2-0.5,0.3-1,0.5-1.5c0.4,1.9,0.7,4.2,0.8,6.1c0,0.4,0.5,0.7,0.8,0.8l-0.2,0.9
		c-0.2-0.2-0.3-0.4-0.5-0.7c-0.4-0.5-0.5,0.2-0.3,0.8c0.2,0.6,0.4,1.8,0.5,2.4c0.1,1.1-0.2,2.5-0.3,3.4c-0.7,0.3-1.3,2.4-1.4,3.4
		c-0.3,2.5-0.8,7.6-1.2,9.8c-0.4,2.1,0,6.9-0.3,9.3c0,0.3-0.2,0.5-0.1,1c-0.2-0.2-0.4-0.3-0.5-0.5c0-0.6,0.1-1.3,0-1.9
		C448.7,290.1,448.6,289.8,448.2,289.8z M447.9,286.4c0,0.2,0,0.5,0.1,0.8l0.3-0.8c0.1-0.4-0.1-0.9,0.3,0c-0.1-1.2-0.4-1.9-0.8-3
		C447.8,284.4,447.8,285.4,447.9,286.4z"/>
	<path d="M383.6,267.8c0,0.2,0,0.4,0,0.6s0,0.5-0.3,1c-0.1-0.3-0.1-0.6-0.3-0.9c-0.2,0.1-0.4,0.2-0.5,0.2c-0.2-1.2,0.1-2.1,0.5-3.3
		c0.2,0.4,0.4,1,0.2,1.5C383.3,267.1,383.4,267.4,383.6,267.8z"/>
	<path d="M439.2,289.1c0-0.1-0.1-0.2-0.2,0.2c-0.4-0.5,0.6-4.6,0.7-5.7c0.1-0.7,0.3,0.1,0.4,0.8
		C440.2,285.4,440.2,288.8,439.2,289.1z"/>
	<path d="M111.1,286.2c0-0.3,0.1-0.5,0.2-0.8c0.2-9.2,1.3-18.2,1.1-27.3c0-0.3,0.1-0.6,0-0.8h0.4c0.1,5.9,0.6,12.1,0.2,17.9
		c0,0.2,0,0.4,0.1,0.6l0.2,1.7l-0.7-0.6c-0.4,1.4-0.4,2.1-0.5,3.7c-0.3,2.3,0.3,5.8,0.4,8.3c-0.5,0.1-0.7,0.3-1,0.5
		c-0.4,0.4-0.7,2.4-0.6,2.9c0,0.3-0.3-0.6-0.5-0.9c-0.2-0.4-0.5-2-0.5-2.4c0-0.6,0-1.4,0.3-0.8c0.2,0.3,0.3,0.7,0.5,1
		c0.1,0.2,0.2-0.5,0.3-0.7C110.5,287.7,110.8,286.9,111.1,286.2z"/>
	<path d="M130.8,275.7c0.3,0.4,0.5,0.7,0.8,1.1c0-0.7,0.1-1.9,0.3-2.5c0.1-0.3,0.1-1,0.2-0.8c0.2,0.3,0.3,0.7,0.5,1
		c0.3-0.4,0.5-0.8,0.7-1.2c-0.1,0.5-0.1,0.8,0,1c0,0.2,0,0.3,0,0.5c0,1.2-0.1,2.9-0.7,3.9c-0.1,0.2-0.2,0.8-0.1,1
		c0.8,2.2-0.3,4.6-0.3,6.8c0,1.1,0.8,4.2,0.8,5.4c0.1,3.1-0.8,9.8-1.3,12.8c-0.3-0.2-0.7-0.7-0.6-1.1c0.5-2.9,0.7-5.8,0.8-8.8
		c0-0.5,0.7-1.3,0.6-2c-0.1-1-0.1-2.1-0.4-3c-0.1,0.4-0.3,0.7-0.4,1.1c-0.1,0.2-0.1,0.5-0.1,0.8l-0.5-1.1c0.7-0.7,0.4-1.7,0.4-2.6
		l-0.6-0.2c0.1-3.3,0.1-6.7,0-10.1c-0.2-0.2-0.3-0.3-0.5-0.5c0-0.3-0.1-0.6-0.1-1C130.5,276,130.7,275.8,130.8,275.7z"/>
	<path d="M437.7,283.3c-0.3,0.1-0.4,1.6-0.7,1.7c-0.2-1.5-0.2-3.2,0.2-4.7l0.5,0.2C437.8,281.4,437.9,282.7,437.7,283.3z"/>
	<path d="M452.1,271.3c0.9,1.1,0.3,1.3,0.8,2.2c0.1-0.6,0.1-1.6,0.1-2.2l0.8,1c0,0.9,0,1.8,0.1,2.7c0.1-0.4-0.1-0.9,0.1-1.2
		c0.2-0.3,0.5-1.3,0.5-1c0.2,2.9,0.3,5.9,0,8.8c-0.4,0-1.3,2.2-1.4,2.4c-0.1,2.3-0.6,5-0.6,6.9c-0.2-0.3-0.6-1-0.5-1.5
		c0.2-5.6,0.1-11-0.1-16.6C451.9,272.3,452.1,271.8,452.1,271.3z"/>
	<path d="M55,296.9c0.1,0.1,0.1,0.2,0.2,0.3c0,0,0.1,0.9,0.1,1c-0.1,2.4-0.2,4.9-0.2,7.3c0,0.2-0.1,0.4,0.1,1
		c-0.3-0.2-0.7-8.9-0.8-10.1C54.5,296.5,54.8,296.7,55,296.9z"/>
	<path d="M370.1,275.2c-0.2-1.1-0.2-2.4,0.4-3.4c0.2-0.4,0.5-1.5,0.5-1.1c0.1,3.5,0.2,6.9,0.3,10.4c0,0.3,0.2,0.9,0.3,1.2l0.9,0.1
		c0.1,0.8,0.1,1.7,0.2,2.6c0.1,1.2,0,2.3-0.1,3.4c-0.4-0.5-0.6-0.7-0.6-1c-0.1-0.7-0.1-1.5-0.1-2.2h-0.7c-0.1-0.3-0.1-0.5-0.2-0.8
		c-0.2-0.7-0.2-1.6-0.4-2.4C370.5,279.2,370.5,277.3,370.1,275.2z"/>
	<path d="M390.4,296.9c0.2,0,0.3-0.7,0.5-1c0.1,0.2,0.1,0.5,0.2,0.7c0.1,3.1,0.1,6.6,0,9.8c-0.5-0.7-0.7-1.6-0.4-2.4
		c-0.1-0.1-0.2-0.2-0.2-0.3c-0.1-0.1-0.1-0.1-0.2-0.2c0.1-2,0-3.8-0.1-5.9C390.1,297.4,390.2,297.1,390.4,296.9z"/>
	<path d="M282.2,276.7c-0.3,0.4-0.4,0.9-1.1,1c0.1-1.8,0.2-3.5,0.3-5.2l0,0h0.7C282.2,274.1,282.1,275.6,282.2,276.7z"/>
	<path d="M386,273.9c0.2,0.3,0.4,0.8,0.5,1c0.2,0.6,0.3-0.2,0.3-0.8c-0.5-11.1,0.3-22.5,0.2-33.7c0-0.3,0.2-0.7,0-0.8h0.8
		c0.1,4.6-0.3,9.4-0.1,14c0,0.9,0,1.6,0.1,2.4c0,0.6,0.2,1.3,0.3,0.7c0.2-3.2,0.3-6.3,0.2-9.5c0-0.3,0.2-0.7,0-0.8h0.5
		c0.6,13.1,0.7,26.2,1,39.3c0,0.6,0.3,0.9,0.4,1.5c0,0.2-0.2,0.3-0.3,0.5c-0.3-0.4-0.4-0.4-0.5-0.5c-0.1-0.2-0.2-0.3-0.3-0.5
		c-0.2-0.8-0.2-1.7-0.2-2.6l-0.8-0.3c-0.6,1.1-0.8,3.7-0.8,5c-0.3-0.5-0.7,0.3-0.6,0.1c0.2-0.6-0.5-0.3-0.2-0.8l0.6-0.9l-1.2-0.3
		c0.2-2.5,0.3-8.8-0.1-11C385.5,275.4,385.7,274.6,386,273.9z"/>
	<path d="M376.9,304.5c0.1-3.2,0.2-6.5,0.3-9.8c0.9-1,0.5-1.3,0.8-1.7c-0.3,1.2,0.4,5.2,0.6,6.5c0.2-0.3,0.3-0.6,0.4-0.9
		c0.2,0.5,0.3,1.6,0.4,2c-0.5,0.5-0.2,5-0.1,5.9c0,0.2-0.2,0.9-0.3,1c-0.1,0.2-0.2,0.5-0.3,0.8c-0.2,0.6-0.4-0.1-0.5-0.8
		c0-0.2-0.1-0.3-0.1-0.5c0-2.1,0.2-4.2,0.3-6.3c-0.3-0.6-0.4-1.5-0.8-2c-0.2,1.6-0.3,3.3-0.1,4.9
		C377.2,303.8,377.1,304.2,376.9,304.5z"/>
	<path d="M126,285c-0.1-2.1-0.1-4.7,0.2-6.8c0.2-1.1,0.8-1.6,0.5-2.7c-0.1,0.6-0.3,1.2-0.4,1.7l-0.5-1c0.1-0.7,0.2-1.3,0.3-2
		c-0.2-0.4-0.7-2-0.6-2.4c0.2-1,0.4-2,0-2.9c0.1-0.4,0.5-1.5,0.7-1.7l0.5,0.8c-0.1,0.6-0.1,1.6,0,2.1c0.2-1,0.4-1.4,0.9-2.3l0.9,0.2
		v4.9c0,0.5,0.1,1.1,0.2,0.6c0.1-1,0.2-1.9,0.5-2.9c0.3,0.5,1.2,0.7,1.7,0.2c0.1,1.6,0.2,2.9,0.2,4.4l-1.2-1.1
		c-0.4,1.5-0.6,2.8-0.5,4.4c-0.2-0.1-0.4-0.3-0.7-0.4l-0.6,1c-0.1-0.5-0.3-1.1-0.4-1.6c-0.2-0.6-0.3,0.2-0.3,0.8l0.2,1.7
		c0.5-0.2,0.9,0.1,1.1,0.5l0.4-1.8c0.2,0.3,0.3,0.7,0.3,1c-0.1,1.9-0.1,3.1,0.1,5.1l-1,0.1c0,0.1,0-0.2,0-0.3
		c0.1-0.9,0.1-2.3,0.1-3.2H128c0.1,0.2,0,0.5,0,0.7c0,1.7,0.1,3.5,0.2,5.1c-0.3-0.9-0.4,0.3-0.4,0s-0.2-0.5-0.3-0.8
		c-0.3-0.9-0.4-3.2-0.4-4.1h-0.5c0,0,0,1.5-0.1,1.7C126.4,284.3,126.2,284.6,126,285z"/>
	<path d="M540.3,273c0.1-0.5,0-1.2,0.2-1.7c0.1-0.2,0.3-0.3,0.4-0.5c0,0.4,0.1,0.7,0.2,1c-0.2,3.2-0.4,6-0.7,9.2
		c0,0.3-0.2-0.6-0.2-0.9c0.2-2.3,0.2-4.6-0.1-6.8C540.1,273.1,540.2,273.1,540.3,273z"/>
	<path d="M280,280.3c-0.1,0.2-0.1,0.5-0.2,0.7c0,1.2,0.3,1.6-0.5,2.4c-0.1-1.6-0.1-3.2,0-4.9c0-0.3,0.1-0.6,0.1-0.9h0.7
		c0.3,0.5,0.5,0.9,0.6,1.4C280.7,279.5,280.7,280.3,280,280.3z"/>
	<path d="M372.1,289.8c0.2,0.7,0.3,1.2,0.4,2c0,0.7-0.2,1.8-0.4,2.4H371c0.5-1.4,0.4-2.9-0.1-4.2
		C371.3,289.9,371.7,289.9,372.1,289.8z"/>
	<path d="M55.7,276.2c0.1-2.7-0.1-5.5,0-8.3c0.3-3.1,0.7-5.7,0.9-8.8l0.9,1.5c0.3,1.4,0.1,2.9,0.4,4.4c0.1,0.8,0,1.2-0.4,2l-0.7,0.3
		c-0.1,8.5,0.2,17,0.5,25.5h-0.8c0,0.3,0-0.6,0-0.9c-0.1-5.4-0.2-11.2,0-16.6c0-0.5-0.1-1.1-0.2-0.6C56.3,275.1,56,275.6,55.7,276.2
		z"/>
	<path d="M378.9,292.8c-0.2-1.5,0-3.4,0.2-5c0.2-0.8,1.5-3.4,1.8-3.8c0.1-0.1,0.1-0.3,0.2-0.3c0.3,0.1,0.7,0.3,1,0.4
		c0.1-1.2,0.1-2.3,0.2-3.5c0.3,0.5,0.4,0.7,0.5,1c0.2,2,0,5.4-0.4,7.5l-1-0.6c-0.2,0.9-0.4,1.5-0.1,2.4l-1,0.3c0.1,0.5,0,1-0.2,1.5
		C379.7,292.5,379.4,292.6,378.9,292.8z"/>
	<path d="M291,272.3c0,0.6,0.1,1.9,0.3,2.4c0.2,0.5,0.5,1.4,0.4,2l-1,0.1c0-1.2-0.2-2.3-0.1-3.5C290.7,272.9,290.9,272.6,291,272.3z
		"/>
	<path d="M291.8,277.3c0.1-3.7-0.1-7.1-0.1-10.7l0.6,0.8c0.3,1.8,0.5,4.5,0.4,6.3c0,1.1,1.2,1.4,1.2,2.4c0.1,1.9,0,4-0.1,5.9
		c-0.3-0.5-0.6-0.7-0.6-1c-0.1-0.9,0.1-1.9,0-2.9c-0.2,0.4-0.4,0.8-0.6,1.1c-0.2-0.3-0.3-0.7-0.5-1c-0.3-0.6-0.4,0.2-0.3,0.8
		c0.3,2.2,0.9,5.3,1,7.3c-0.7,0.2-0.7,1.6-0.7,2.1h-0.6c0.2,0.1,0-0.5,0-0.7c-0.1-3.2-0.2-6.2-0.2-9.3
		C291.4,278.2,291.6,277.6,291.8,277.3z"/>
	<path d="M285.7,284.5c-0.1-3.9,0-7.5,0-11.5l0.4,1.3c0,0.3,0,0.6,0,1c0,0.6,0.2,1.3,0.2,0.7c0-0.9,0-1.8,0-2.7
		c-0.1-0.2-0.2-0.3-0.3-0.5c0.1-0.4,0.3-1.3,0.3-1.7c0.2-0.2,0.6-1.1,0.6-0.7c0.1,1.5,0.3,2.9,0.6,4.4c-0.1,0.2-0.4,0.4-0.2,0.5
		c0.2,0.1,0.4,0.1,0.5,0.2c0,2.2-0.1,5.1,0.1,7.1c0.1,1.2,0.2,2.1,0.4,2.9c0.1,0.2,0.3,0.4,0.4,0.7c0.1,0.1,0.1,0.2,0.1,0.3
		c0.1,0.2,0.1,0.3,0.1,0.5c0,0.8-0.6,3.1-0.7,3.9c-0.1,0.3-0.3-0.6-0.4-1c-0.1-0.9-0.1-2.1,0-2.9c-0.4-0.8-0.9-2-1-2.9
		c-0.1-0.7,0-2.5,0.1-3.1l-0.5-0.1c0.2,0.1-0.1,0.5-0.1,0.7c-0.1,0.7,0,2.7,0.2,3.4c0.2,0.7-0.2,1.6-0.4,0.9
		c-0.1-0.3-0.2-0.6-0.3-0.9C286.2,284.8,285.8,284.3,285.7,284.5z"/>
	<path d="M432.4,277.7c0.1-0.2,0.2-0.4,0.2-0.6c0.6-3.5,0.3-6.3,0.4-9.8c0-1.2,0-1.5,1-2.2c0.1,2.5,0,5.1,0.1,7.6
		c0,0.9-0.3,3.5-1.1,4.1C433.3,277.8,433.4,277.7,432.4,277.7z"/>
	<path d="M210.9,279.6c-0.2-0.3-0.5-0.4-0.8-0.7l0.6-0.6c-0.1-0.5-0.3-1.1-0.2-1.7c0.2-4,0.7-7.6,1.2-11.7c0.5,2.1,0.9,4.2,1.1,6.3
		c0,1.5-0.1,2.9-0.3,4.4c-0.6-0.1-0.8,2.9-0.8,3.6c-0.2-0.2-0.3-0.3-0.5-0.5C211.1,279.1,211,279.3,210.9,279.6z"/>
	<path d="M282.2,287.4c-0.2-0.7-0.1-1.7,0.1-2.4c0.3,0.5,0.8,1.3,0.8,1.9c0,1,0.2,1.5,0,2.5C282.7,288.9,282.4,288,282.2,287.4z"/>
	<path d="M270,300.1c-0.2-0.7-0.5-2.1-0.3-2.9c0.5-1.8,0.8-3.5,1-5.4c0.1-0.5,0.7-1,1.2-1.2l0.8,1.4c0.6-0.6,0.8-2.3,0.7-3l0.8,0.4
		c-0.2,1-0.3,1.9-0.4,2.9c0,0.2,0.1,0.8-0.1,0.7l0.6,0.1c0.2-1.7,0.3-3,0.2-4.7l1-0.2c0-2.7-0.1-5.4-0.1-8.1
		c0.1-1.6,0.1-2.5,0.3-3.9c0-0.3,0.3-0.7,0.1-0.9l0.9,0.3c-0.9,2.4-0.1,3.2,0.1,5.4c0.2,2.2-0.1,5.1,0,7.3c0,0.3,0.7,1.3,1,1.5
		c-0.1,0.6-0.2,1.4-0.2,2s0,1.3,0.4,0.8c0.2-0.3,0.2-1,0.7-1.2c0.3,1,0.5,2,0.6,2.9c0,0.5-0.2,1.2-0.6,1.5c0.3,0.4,0.5,1.4,0.2,2
		c0,0.2,0,0.3,0.1,0.5c0,0.2,0.1,0.3,0.2,0.5c0.2,0.1,0.6,0.2,0.8,0.3v-1l-0.7-0.3c0.1-0.2,0.3-0.3,0.4-0.5s0.1-0.3,0.2-0.5
		c-0.2-1.1-0.2-1.5,0.1-2.7c0.2-0.4,0.4-0.1,0.5,0.2c0.6-0.3,0.7-0.3,0.7-0.4c0-0.9-0.1-1.8,0-2.7h0.7c0.2,0.2-0.1,0.5-0.1,0.8
		c-0.2,1.8-0.3,3.8-0.3,5.5l-0.6,0.3c0.2,0.7-0.8,4-1.1,4.7c-0.2-0.5-0.5-0.9-0.7-1.4c-0.5,1.2-1,2.6-1.5,3.9
		c-0.1-0.2-0.3-0.5-0.2-0.7c0.6-1.7,0.4-3.6,0.5-5.4c-0.2-0.2-0.4-0.3-0.6-0.5v-2.1H277c0.2,0.1,0,0.4,0,0.7c0,0.9-0.1,1.9-0.2,2.9
		l-1.1,1.1c0.2,0.3,0.3,0.6,0.5,0.9c-0.6,0.2-0.9,0.7-1.1,1.2c-0.5-1.3-0.9-2.4-1.3-3.8c-0.8-0.2-2-1-1.6-2.1
		C271.5,298.3,271,298.8,270,300.1z"/>
	<path d="M442.6,286.6c-0.2-0.4-0.4-0.8-0.6-1.2l-1.1,1c0,1,0.1,2-0.5,3.4c0-2.3-0.2-3.4,0.7-5.6c0.2,0.1,0.3,0.3,0.5,0.4
		c0.2-0.2,0.4-0.5,0.7-0.7c0.2,0.5,0.4,1,0.5,1.5C442.8,285.9,442.9,286.7,442.6,286.6z"/>
	<path d="M241.5,300.7c0-0.8,0.1-1.3,0.5-2c0.9,1.3,1.4,2.2,1.9,3.6c0.3-0.3,1.5-2.2,1.3-2.7c0.1-0.2,0.1-0.4,0.2-0.7
		c0.2-1,0.8,0.1,0.8,1.2c0,1,0,1.9,0,2.9c0,0.4,0.2,0.8,0.3,1.2c0.2-2.3,0.4-1.8,1.3-3.6c0.1-0.2,0.2-1.4,0.2-1.5
		c0.2,0.3,1.3-0.5,1.3-0.5l-0.7-1c0.1,0.1-0.6,1.1-0.8,1.3c-0.4-1.6-0.8-2.6-0.5-4.4h0.9c-0.2-1.4,0.3-3.2,0.7-4.4
		c0.1,2.7,0.2,3.9,0,6.7c0.4-0.6,1.5-1.7,1.1-2.5c0.1-0.2,0.3-1,0.4-0.7c0.3,2.2,0.7,4.4,1,6.6c0.1,0.2,0.3,0.5,0.4,0.7
		c0.4,0.3,0.4,0.4,0.6,0.8c0.1,0.3,0.1,0.6,0,0.9c-0.4-0.4-1-0.1-1.4,0.2c0,0.8,0,1.6,0,2.3c0,0.5-0.1,1-0.2,0.6
		c-0.1-0.2-0.2-0.4-0.2-0.6c-0.1-1.3-0.3-3-0.8-4.2c-0.1,0.6-0.9,2-1.1,2.3c-0.1,0.1-0.2,0.8-0.2,1c0.5,2-0.1,3.2-0.1,5.4
		c-0.2-0.4-0.4-0.8-0.6-1.2l-0.4,1.5c-0.2-0.4-0.4-0.7-0.6-1.1c-0.2,0.2-0.3,0.4-0.5,0.6c-0.2-0.3-0.3-0.7-0.5-1
		c-0.2,0.1-0.3,0.3-0.5,0.4c-0.4,0.4-0.5-0.1-0.4-0.7l0.2-0.7l-0.9-0.1c-0.5-1.7-0.8-3.1-1.2-4.6C243,302.1,242.1,300.7,241.5,300.7
		z"/>
	<path d="M207.8,283.8c0.1-0.3,0.1-0.5,0.2-0.8c0.2-3.7-0.2-7.5,0.8-11.1l0.5,2.3c0.1,1.6,0.2,2.8-0.2,4.4l-0.6-0.2l0.1,6.4h-1
		c0.1,0.1,0.1-0.2,0.1-0.3C207.7,284.2,207.7,284,207.8,283.8z"/>
	<path d="M69.6,302.7c0.2-0.2,0.4-0.4,0.6-0.7c-0.3-3.3-0.5-7.4-0.3-10.8c0-0.8,0.5-1.6,0.9-2.2c0.2,2.1,0.4,4.2,0.3,6.4
		c0-0.2,0.1-0.5,0.1-0.7c0.2-1.3,0.3-4.9-0.4-6c0.3-1.2,0.6-1.7,0.5-3.3c-0.5-3.9-1.2-11.9-0.9-15.6c0.1-0.8,0.3-1.3,0.9-2
		c0.2-2.1,0.3-4.9,0.2-7l0.7-0.8c0.3-0.4,0.3-1.1-0.1-0.7c-0.3,0.3-0.6,0.6-0.9,0.9l-0.1-0.7c-0.1-0.6-0.1-2.2,0-2.9
		c0.1-0.6,0.9-2.9,1.2-3.4c0.1-0.1,0.3-0.3,0.4-0.4c0,0.4,0,0.6,0.1,0.9c0.2,15.1,0.2,30.3,0.1,45.4c0,1.7-0.2,3.5-0.2,5.2
		c-0.4,0.8-0.5,1.7-0.6,2.6c0,0.2,0.1,1,0.1,0.8c0,0,0.4-1.4,0.5-1.5c0,2.2,0,4.9,0.2,7.1c-0.4,2.8-0.7,5.5-0.8,8.4h-0.5
		c0,0.2,0-0.4,0-0.5c0-2.6,0.1-5.2,0.3-7.8l-0.5-0.6c0.2-0.9,0.1-2.2-0.1-3.1c-0.1-0.3-0.3,0.5-0.4,0.8c-0.2,0.8-0.4,2.3-0.4,3.1
		c0,0.4-0.4-0.8-0.4-1.2c0-2.8,0-6-0.4-8.8C69.4,303.2,69.5,303,69.6,302.7z"/>
	<path d="M372.8,299.3c0.1-2.2,0.2-4.4,0.3-6.6c0-0.6,0.1-1.3,0.2-0.8c0.2,1.3,0.9,6.1,0.6,7.1c-0.1,0.5,0,1.1,0.3,1.5
		c0.2,0.2,0.4,0.4,0.5,0.6c-0.9-0.1-1.5,0.3-2,0.6C372.7,300.9,372.5,300.2,372.8,299.3z"/>
	<path d="M283,280.8c0.5-0.9,0.3-1.8,0.5-2.7c0.2-0.1,0.6-0.6,0.7-0.4c0.3,1.1,0.2,1.8,0.5,2.9c0.3,1.2,0.2,2.6,0.2,3.9
		c-0.2,0.1-0.4,0.2-0.4,0.5c0,0.2-0.2,0.3-0.3,0.5c-0.5-0.5-0.7-1.1-1.2-1.2c-0.3,0-0.3,0.3-0.5,0.5c-0.4,0.4-0.4-0.2-0.2-0.8
		c0.1-0.1,0.1-0.2,0.2-0.3l0.3-0.3c-0.1-0.4-0.4-1.4-0.4-1.8C282.7,281.1,282.4,281.2,283,280.8z"/>
	<path d="M71.3,333.3c0.2-2.9,0.2-6.1,0.2-9.1h0.7c0.1,0.3,0,0.5,0,0.8c0,2.8-0.2,6.3,0.1,8.9h-1C71,334,71.3,333.5,71.3,333.3z"/>
	<path d="M294.2,284.4c0.2-6.1-0.2-11.9-0.1-18c0-1.2-0.6-1.5-0.4-2.7c0-2.9,0-5.7,0-8.6c0.2-0.3,0.5-1.2,0.6-0.9
		c0.2,1.2,0.5,3,0.6,4.3c0.4,3.8-0.6,8.8,0.3,12.5c0.2,0.6,0.3-0.2,0.3-0.8c0-5.1-0.3-10.2-0.4-15.1c-0.1-1.7,0.2-4.3,0.7-5.9
		c0,0.5,0.2,0.7,0.2,1c0.1,0.6,0.1,1.8,0.1,2.4c-0.1,12.5-0.3,25.1-0.2,37.6c0,0.6,0,0.4-0.2,1.1c-0.1,0.3-1.3,2.4-1.5,2.7l-0.4-1.2
		c0.4-0.2,0.8-1.4,0.8-1.6l-0.9-0.1l0.4-2.8l-0.7-0.3v-3.6C293.7,284.5,293.9,284.4,294.2,284.4z"/>
	<path d="M438.2,284.2c0.3,1.7,0.4,3.8,0.3,5.6c0.1,0.3,0.1,0.5,0.2,0.8c0.3,0.7,0.2,1.5,0.2,2h-0.8c0.1,0.1,0-0.3,0-0.4
		c-0.1-2.4-0.2-4.9-0.1-7.3C438.1,284.7,438.2,284.5,438.2,284.2z"/>
	<path d="M277.7,306.9c0.1-0.2,0.2-2.3,0.2-2.3c0.2,0.2,0.4,0.5,0.7,0.7l0.3-1.7l0.7,0.1c0.2,0.2-0.1,0.5-0.1,0.7
		c-0.1,0.7-0.3,1.7-0.2,2.4c-0.2-0.2-0.4-0.4-0.7-0.6l-0.4,1.7C278.1,308.4,277.9,307.3,277.7,306.9z"/>
	<path d="M64.4,291.3c-0.4-1.1,0-4.5,0.1-5.9c0-0.2,0.1-0.5,0.1-0.7h0.5c-0.1,1.4,0.1,3.5,0.6,4.8c0.2,0.6,0.3-0.1,0.4-0.7
		c0-0.4,0-1.1-0.2-1.5c0.1-0.2,0.2-0.5,0.3-0.7c0.2-0.6,0.4,0,0.6,0.7c0.2,0.8,0.4,2.1,0.6,2.9c0.8,5.8,0.5,11.3,0.8,17.1
		c-0.1,0.2-0.2,0.3-0.2,0.5c-0.8-0.2-0.5,0.4-0.5,0.6l-1,0.5c0,0.2,0-0.4,0-0.6c-0.2-5.3-0.5-11.4-0.3-16.6
		C65.5,291.3,65.1,291.4,64.4,291.3z"/>
	<path d="M69.4,290.8c-0.2,0.2-0.5,0.3-0.5,0.5c-0.2,2.3,0,4.6-0.2,6.8c0,0.3-0.1,0.5-0.2,0.8c-0.1-0.1-0.3-0.2-0.4-0.3
		c0.1-4.6-0.1-9.1,0.3-13.7c0-0.5,0.6-1.2,0.9-1.4c0.1,2.1,0.3,4.3,0.4,6.3C69.8,290.4,69.6,290.8,69.4,290.8z"/>
	<path d="M545.8,301.6c-0.3-1-0.7-1.9,0.2-1.4c0.2,0.1,0.4,0.2,0.6,0.3c0.2,0.6-0.3,1.6-0.5,2C546,302.2,545.9,301.9,545.8,301.6z"
		/>
	<path d="M443.4,297.2c0.4,0.3,0.6,0.7,0.7,1.1l1.1,0.1c0,0.5,0,1.2,0.1,1.7c0.1,0.4,0.4,1.5,0.5,1.1c0.3-3.4,0.3-6.7,0.2-10.1
		l0.7,0.5l0.6,1.2c0.1,0.2,0,0.6,0.3,0.6c0.4-0.2,0.1-0.6,0.5-0.9c0.7,0.6,0.7,2.6,0.5,3.5c-0.4-0.5-0.5-1.1-0.5-1.7
		c-0.2-0.1-0.3-0.1-0.5-0.2c0.1,0.2,0.3,0.4,0.2,0.6c-0.2,0.2-0.4,0.5-0.6,0.7c0.3,0.3,0.8,1.1,0.9,1.5c-0.3-0.2-0.4-0.1-0.5,0
		c-0.3,0.2-0.6,0.2-1,0.3c1.2,1.3,0.8,3.2,0.6,4.8c0,0.3-0.6,0.7-0.9,0.8c-0.2,0.1-0.1,0.4-0.2,0.7c-0.3,1-0.6,1.9-1,3
		c-0.1,0.4-0.2-0.7-0.4-1.1c-0.4-0.9-0.8-2.2-1.1-3.4c-0.1-0.5-0.3-3.3-0.3-3.9C443.4,297.8,443.4,297.5,443.4,297.2z"/>
	<path d="M209.7,286.7c0.1-0.3,0.3-0.5,0.3-0.8c0-1.3-0.2-3.1-0.2-4.4c0-0.3,0.2-0.6,0-0.8h0.5c0.1,1.2,0.1,2.1,0.1,3.3
		c0,0.3,0.2,0.5,0.2,0.7c-0.1,0.6,0.2,0.9,0.2,1.2c0.1,1.9-0.1,3.9,0,5.9c-0.2,0-0.5,0.1-0.7,0.1c-0.1,0-0.2-0.1-0.2-0.1l-0.5-0.2
		C209.5,290,209.6,288.3,209.7,286.7z"/>
	<path d="M433.1,279.6c0.1,0.3,0.3,0.7,0.4,1l0.2-2.7h0.5c-0.2,1.9-0.2,4.2,0,6c-0.1-0.4-0.2-0.3-0.3-0.2c-0.3,0.3-0.7,0.7-1.1,1
		c0.1,1.9,0,4-0.1,6c-0.1,0.5-0.4,1.6-0.5,2c-0.1,0.2-0.2,0.3-0.2,0.5c-0.2,0.4-0.2-0.1-0.2-0.5c0.2-1.9-0.1-3.5,0-5.4
		c0-1.4,0.3-3.9,0.7-5.4C432.5,281.2,432.7,280.4,433.1,279.6z"/>
	<path d="M228.3,308.4c0.2-1,0.4-2.9-0.5-3.6l0.5-0.8c-0.2-0.2-0.4-0.5-0.5-0.7c-0.2,1-0.4,2.2-0.6,3.2l-1,0.5l-0.7-0.6
		c1-2.4,0.4-5.6,0.7-8.2c0.1-0.7,0-1.3-0.4-0.8c-0.2,0.3-0.4,1-0.7,1.3c-0.1,1.1-0.2,3.5-0.1,4.6c-0.2,0-0.5,0-0.7,0
		c-0.1-0.1-0.2-0.2-0.2-0.2c0-0.2,0-0.3-0.1-0.5l1-1.1c-0.6,0.2-0.7-1-0.7-0.6c0,0.2-0.3,0.3-0.5,0.5c-0.1-3.1-0.4-6.9-0.8-10
		c-0.3,0.6-0.5,1-1,1.4c-0.3,0.2-0.4,0.6,0,0.5c0.3-0.1,0.6,0.3,0.7,0.5c0.1,0.5-0.1,1.1-0.3,1.5c-0.2,0.1-0.3,0.3-0.5,0.4
		c0.2,4.3,0.2,8.6,0,12.9c0,0.2-0.4,0.2-0.5,0.3c-0.1-0.7-0.6-2.2-1-2.8c-0.2,0.5-0.3,1-0.5,1.4l-0.4-1.7c-0.1-0.4-0.4,0.7-0.5,1.1
		c0.1,0.6-0.3,3-0.5,3.6l-0.5-0.9h-0.6c-0.3-0.8-0.6-3.5-0.2-4.3c-0.3-0.1-0.5-0.2-0.8-0.3c-0.6-0.8-0.6-2.3-0.5-3.2h0.7
		c0.2-0.6,0.4-1.1,0.4-1.7c-0.4-2.7-0.8-5.1-1.3-7.8c0.1-0.2,0.2-0.5,0.1-1c0.2,0.2,0.3,0.3,0.6,0.5c0,0.4,0.1,0.8,0.1,1.3l0.6-0.5
		c0.1,0.5,0.1,1.1,0.1,1.7c0.2,0.2,0.3,0.3,0.5,0.5c0.1,1,0.1,2.9-0.2,3.9c0,0.4,0.4,1.2,0.7,1.5c-0.1,0.9,0,4.5,0.3,5.1
		c0.1-0.2,0.1-0.5,0.2-0.7c0.3-0.9,0.3-1.4,0.5-2.4c0.2-3.1-0.1-6.1-0.1-9.3c0-0.8,0-1.5,0.5-0.9c0.2,0.2,0.3,0.4,0.5,0.6
		c0.1,0.2,0.1,0.4,0.5,0.4c-0.9,1.2-0.6,5-0.7,6.8c0,0.1,0.1,0.5,0,0.4l0.9-0.1c-0.2-2.8-0.5-7-0.4-9.6c0-0.8,0.6-2,0.6-2.9
		c0-3-0.5-5.9-0.8-8.8c0-0.3,0-0.7,0.1-1l1.3-0.3c0,1.8,0.1,3.5,0,5.2c0,0.2,0.1,0.4,0.1,0.5c0.1-3.5,0.2-6.8-0.2-10.3
		c-0.1-1.8,0.3-4,0.2-5.9c0.2-0.2,0.4-0.5,0.6-0.8c0.1,3.4,0.3,6.6,0.4,10c0,0.4,0.9,0.9,0.6,1c-0.3,0.1-0.5,0.1-0.8,0.2
		c-0.2,1.1,0,2.3,0.6,3.2c-0.1,2.5-0.1,5.1-0.1,7.6c0.1-0.3,0.2-0.5,0.2-0.8s0-0.7,0-1c0-0.5,0.1-1.2,0.3-0.7c0.5,1.6,0.8,3.6,1,5.2
		c0,0.5,0.2-0.2,0.2-0.7c0.1-2.4,0.1-4.9,0.2-7.3l0.7,0.9c0.1,0.6,0.3,1.4,0.3,2c-0.1,2.5,0.4,4.6,0.5,7l-0.5,0.8
		c0.3,0.3,0.6,0.6,0.7,1c0.3,1.8,0.3,3.5,0.3,5.4c0.8,0.7,1,1.6,1.2,2.6l1.2-2.1l0.8,1.1l-0.1,0.6c-0.1,0.5,0.3,0.8,0.5,0.4
		c0.2-0.5,0.5-1.1,0.8-1.6c0.2,1,0.4,2.4,0.3,3.4c0.6,0.3,1,0.7,1.4,1.2c0-0.7,0.5-1.6,1-2.1c0.1,0.3,0.2,0.6,0.2,0.9
		c0,0.2-0.2,0.5,0.2,0.1l-0.6,1.1l1.1-0.4c-0.2-0.6-0.3-2.6-0.1-3.2c0.2-0.2,0.5-0.5,0.7-0.7c0.6,1.4,0.7,3,0.9,4.5
		c0.1,0.7,0.4-0.1,0.4-0.8c0-0.9,0-1.8-0.1-2.7l0.7,0.1c0.1-0.3,0.3-0.7,0.4-1l0.2,1.2c-0.1,0.5,0,1.1,0.3,0.7
		c0.2-0.2,0.3-0.5,0.5-0.7c0.2,0.1,0.3,0.2,0.5,0.4c0.3-0.6,0.7-1.3,1-2c0.1,0.3,0.4,2.3,0.3,2.6c0.1,0.4,0.4,1.6,0.4,1.2
		c0-0.7-0.1-2.4,0.1-3.1c0.1-0.4,0.4-0.7,0.8-0.9c0,0.4,0,0.6,0.1,0.9c-0.2,1.3-0.4,2.7-0.6,4c-0.3-0.2-0.7-0.3-1-0.5
		c-0.3-0.1-0.3-0.6-0.4-0.8c-0.8,0.8-0.9,1.2-1.3,2.2c0.3-0.5,0.2-0.1,0.2,0.1s0.1,0.5,0.2,0.7c0.2-0.6,0.3-1.2,0.5-1.8
		c0.2-0.8,0.4,0.2,0.3,1.1c-0.1,1.1-0.8,3.4-1.2,4.4l-0.7-1.5c-0.2-0.3-0.3,0.7-0.5,1c0.2,0.7-0.5,2.3-0.9,2.9s-0.4-0.2-0.2-1
		c0.3-1.2,0.5-2.2,0.7-3.4c0-0.2,0-0.3,0-0.5c0-0.1-0.4-1.2-0.4-1.5c0-0.2-0.4,0-0.6-0.1c-0.5,0.5,0.1,0.5-0.7,1.1
		c-0.2,0.3-0.3,0.6-0.4,1c-0.1,0.3-0.1,0.6,0,1c0,0.2,0.2,0.3,0.3,0.5s-0.4,0.1-0.6,0.1l-0.8,1.2c-0.2-1-0.8-3-1.1-4l-1.9-1.7
		c-0.2,0.2-0.4,0.5-0.7,0.7l-0.8-0.1c0.1,0.4,0.2,0.9,0.1,1.4C228.8,308.1,228.6,308.2,228.3,308.4z"/>
	<path d="M454.8,282.7c0.3-3.3,0.5-6.6,0.7-9.9c0-0.3,0.3-0.7,0-0.8l0.7,0.1c-0.1,0.8-0.1,2.1,0.1,2.9c0.2-0.2,0.4-0.5,0.6-0.7
		c-0.1,0.4,0.1,0.7,0.1,1c0,0.9-0.1,1.8,0,2.8c-0.2,0.1-0.4,0.1-0.7,0.2c0.5,6.8,0.7,13.3,0.5,20.2c-0.4,0.6-0.2,1.2-0.4,1.9h-0.8
		c-0.2,0.5-0.6,2.7-0.2,3.2l-0.7,0.7c-0.2-2.8-0.5-5.4-1.1-8c-0.1-0.3,0.4-10.4,0.4-11.7c0-0.2,0.4-1.4,0.4-1.5
		C454.6,282.9,454.7,282.8,454.8,282.7z M455.1,298.1c0,0.1-0.1,0.3,0,0.3h0.9c0-5,0-10.1,0.3-15.1l-1.1,1.6
		C455,289.3,455.1,293.7,455.1,298.1z"/>
	<path d="M538.8,297.5c-0.9,2.3-1,2.5-1.1,2.7l-1.2-0.9c0.4-0.4,0.7-0.7,1.1-1.1c0-0.2-0.1-0.3-0.1-0.5c0.4-0.4-0.5-1.1-0.8-1.1
		c1-1.5,0.3-6.3,0.2-8.2v-1c0,0,0-0.4,0.1-0.6c0.2-0.2,0.3-0.3,0.3-0.9c0.5,0.4,0.9,1.3,0.8,2c-0.2,1.6-0.3,3.2-0.2,4.9
		c0,0.2,0.2,0.7,0,0.6h0.4c0-2.5,0.4-4.3,0.5-6.5c0.1-2.6-0.3-5.3-0.5-7.8c0.1-0.2,0.2-0.3,0.3-0.5c0.4,0.1,0.4,0.1,0.4,0
		c0.2-1.1,0.1-2.7,0.1-3.8h0.4c0.3,0.1,0,0.5,0,0.8c0.2,8.3,0.8,16.7,0.5,24.9c-0.1,2.3-0.5,4.7-0.6,7.1h-0.9c0.1,0,0-0.2,0-0.3
		c0-0.3-0.1-0.7-0.1-1c0.1-2.3,0.1-4.6,0-6.8C539.3,299.1,539.1,298.2,538.8,297.5z M538,296.7c0.1,0.2,0.2,0.8,0.4,0.6
		c0.3-0.4,0.3-1,0.5-1.5c-0.5-0.6-0.6-0.9-0.6-1.6c-0.2,0-0.3,0.1-0.5,0s-0.2,0.3-0.3,0.4C537.7,294.8,538.5,296,538,296.7z"/>
	<path d="M132.9,300.6c0.1-0.5,0.7-1.5,0.7-2c-0.2-1.3-0.2-1.9,0-3.2c0.1-0.4,0.5-0.2,0.5,0.2c0.3,2.9,0.1,2.3-0.8,4.7
		c0.2,0.7,0.1,1.5,0.5,2.1c-0.6,0.4-0.9,2.4-0.7,2.9C132.9,304,132.8,302.2,132.9,300.6z"/>
	<path d="M68.2,308.2c0.2,0.1,0.3,0,0.5,0c0.1,1.3,0.1,2.5,0.2,3.7c0.2,2.2,0.1,4.8,0,7c0,0.4-0.4-0.7-0.5-1.1
		c-0.3-2.9-0.5-5.9-0.5-8.8C67.9,308.6,68.1,308.4,68.2,308.2z"/>
	<path d="M121.1,297.7c-0.2-0.7-0.3-0.7-0.3-1.5c0.1-1.6,0.1-2.6,1.1-3.9c0.1-2.4-0.1-3,0.4-5.5c0.1-0.4,0.5-0.3,0.5,0.1
		c0,3,0.1,7.2,0,10c0.1-0.2,0.2-0.5,0.3-0.7c0.1-3.1,0.2-6.1,0.3-9.3c0.1-0.8,0-1.1,0.8-1.5c-0.5-0.5-0.6-2.7-0.5-3.4
		c0.1-0.7,0.3-1.4,0.6-2.1c0.2,0,0.7-0.2,0.7,0c0,2.9,0,5.6,0.1,8.4c0,0.3,0.1,1,0,0.8h0.4c0-1-0.2-2.9,0.5-3.7
		c-0.1,0.5,0,0.7,0.1,1c0,0.9-0.1,1.9-0.2,2.8c-0.2,0.3-0.4,0.5-0.6,0.8l-0.6-0.3c-0.4,1.8-0.4,7.3-0.6,9c-0.2,0.8-0.8,1.6-1.3,2.4
		c-0.1,0.9-0.4,2.9-0.4,3.6l-0.7,0.4l-0.1-4c0.2-0.2,0.3-0.4,0.5-0.6l-0.6-0.6C121.7,298.7,122,298.2,121.1,297.7z"/>
	<path d="M213.4,285.9c0.1,0.1,0.2,0.2,0.2,0.3c0.2,0,0.3-0.1,0.5-0.1c0.1-0.1,0.1-0.2,0.2-0.2c0.2-0.3,0.3-0.6,0.3-0.9
		c-0.1-3.2-0.1-7.1,0.2-10.3c0-0.2,0.2-0.4,0.1-0.5h0.5c0.3,3.5,0.5,6.8,0.8,10.3c0.1,1,0,2.5-0.3,3.4l-1.1-1.1
		c-0.1,1.6,0,1.8,0.5,3.1l-0.9,0.9v5.1h-0.7c0.2,0.2-0.1-0.5-0.1-0.7c-0.1-0.6-0.1-1-0.2-2c-0.2-1.5,0.1-4.7,0.1-6.3
		C213.5,286.6,213.4,286.3,213.4,285.9z"/>
	<path d="M227.1,307.4c0.1,0.2,0.2,0.5,0.2,0.7c0.2-0.3,0.3-0.6,0.5-0.9c0.3-0.5,0.4,0.2,0.2,0.7c0,0.2-0.1,0.3-0.1,0.5
		c0.1,0.2,0.2,0.4,0.3,0.6c0.2,0.5,0.2,0.7,0.2,0.8c0,0.2,0,0.5,0,0.7c-0.3,0.1-0.6,0.2-0.8,0.3c-0.5,0.2,0.5,0.9,0.5,1.4
		c-0.1,0.1-0.3,0.2-0.4,0.3h-0.6v1.4h-0.7c0.2,0.2,0.1-0.5,0.1-0.7c0.1-0.7-0.2-4.2-0.3-4.9C226.3,307.9,226.7,307.6,227.1,307.4z"
		/>
	<path d="M47.5,317.7c0.2,0.3,0.4,0.6,0.4,1c-0.3,5.9,0.7,12,0.7,18.1c0,0.3,0.1,0.5,0.1,0.8c0.1,0.9,0.2,0.9,0.6,1.7
		c-0.2,0.2-0.4,0.3-0.6,0.5c-0.1,0.4-0.2,0.6-0.2,1c0,0.2,0.2,0.4,0.2,0.5l-0.5-0.1c-0.3-1.5-0.6-3.7-0.7-5.3
		c-0.4-5.1,0-11.9,0-17.1C47.5,318.3,47.5,318,47.5,317.7z"/>
	<path d="M448,296.9c0.2,0.4,0.4,0.6,0.3,1.2s0,1.3,0.2,0.7c0.1-0.2,0.2-0.5,0.2-0.7c0.3,0,0.4-0.2,0.4-0.5c0.1-1.4,0.1-3-0.1-4.4
		c0.5,0,0.6,0.2,0.6,0.5c0.2,2.3,0.1,4.8-0.1,7.1c-0.2,0-0.4,0.1-0.7,0.1c-0.2,0.5-0.2,1.9-0.1,2.4l-1,0.2c0.2,0.1,0-0.4,0-0.6
		c-0.1-1.8-0.2-3.6-0.3-5.4C447.7,297.4,447.9,297.2,448,296.9z"/>
	<path d="M549.5,326.7c0.1-0.2,0.2-0.5,0.3-0.7s0.2-2.3,0.2-2.4c-0.2-1.6-0.2-3-0.4-4.4c0-0.2,0.1-0.4-0.1-0.5
		c-0.3-0.2-0.6-0.4-0.9-0.7l-0.1,3.7c0.2,0.1,0.5,0.1,0.7,0.2c0,0.2,0,0.5,0.1,4.1c-0.4,0-0.5-0.3-0.6-0.5l-0.4-1.5
		c-0.1,1.8-0.1,2.1-0.1,3.8l-0.7,0.8c0,0.3,0,0.6,0,1h-0.6c-0.1-1.8,0.3-4.9,0.9-6.4c-0.1-0.2-0.2-0.5-0.3-0.7l-0.3,1.2
		c-0.2-0.1-0.5-0.2-0.7-0.4c-0.4-0.6-0.7-2.6-0.4-3.5l-1-0.8c0.3-0.7,0.3-2.2,0.2-2.9c-0.4,0.8-0.4,1.7-0.2,2.5
		c-0.4-0.9-0.5,0.4-0.5,0.1c0.1-0.3-0.2-0.6-0.2-0.8c-0.3-0.8-0.2-0.7-0.4-2c-0.3-4.9,0.4-10.3-0.8-14.4c0-2.4,0-4.7,0-7.1
		c0-0.5,0.2-0.9,0.3-1.4l0.9,0.9c0.2-2.7-0.4-5.2,0.2-7.8c-0.8-1.2-0.8-3-0.6-4.4c0-0.5,0.3-1,0.6-1.3c0.4,0.9,0.9,1.8,1,2.8
		s0.1,5.3-0.6,5.9c0,3.6,0.1,7.2,0.3,10.7c0,0.2-0.4,0.4-0.2,0.5c0.3,0.3,0.6,0.5,0.6,1c-0.1,2.9-0.2,5.9-0.1,8.8
		c0,0.2,0.2,0.3,0.2,0.5c0.1,1.5,0.2,3.1,0.4,4.6c0.1,0.5,0.2-0.2,0.2-0.7c-0.1-2.1-0.1-4.2-0.1-6.3c0-0.2,0.2-0.6,0-0.7h0.5
		c0.1,3.2,0.3,6.3,0.4,9.5c0.2,0.2,0.5,1,0.7,0.7c0.5-0.9-0.3-0.4,0.4-1.2c0.1,0.1,0.2,0.2,0.3,0.3c0.2-0.1,0.7,0.1,0.7-0.2
		c0-2.3,0.1-4.7,0-7c0-0.3-0.2-0.7-0.3-1c0,0.7-0.3,2.4-0.7,3c0-0.8-0.2-1.6,0-2.4c0.7-3,1.4-7.1,1.5-10.2c0-0.7,0.7-1.8,1-2.2
		c0,3.2,0.3,6,0.5,9.1c0,0.4-0.4,2.1-0.4,2.4c-0.1,3,0.4,5.4,0.5,8.3c0.1,3.4-0.2,6.3-0.3,9.7c0.5,0.5,0.5,0.7,0.9,1.3
		c0.1,0.1,0.2-1.4,0.7-1.8c0.1,1,0.2,2.2,0.3,3.3c0.8-1.5,0.7-2.9,0.6-4.5c-0.2,0.4-0.4,0.7-0.6,1c-0.1-0.2,0-0.6,0-1.1
		c-0.1-2.4-0.1-5.1,0.2-7.5c0-0.2,0.3-0.5,0.1-0.6h0.5l0.1,2.9h0.5c0.1-1.7,0.1-4.1,0.3-5.7c0.1-0.5,1.1-1.1,0.7-1.3l0.5,5.2
		c0,2.1-0.1,4.4,0,6.3c-0.6,1.2-0.5,2.3-0.5,3.9c-0.1,0.1-0.2,0.2-0.3,0.3c-0.1,0.1-0.1,0.1-0.2,0.2c0.1,3.2,0.1,6.5,0.1,9.8
		c0,0.3-0.1,0.6-0.1,1l-1,0.4l-0.8-1.6c-0.2,0.6-0.2,2.4-0.3,3.2c0.8,0.7,0.5,4.1,0.5,5.1c0,0.5-0.6-0.8-0.6-1.2
		c-0.2-1.2-0.4-3.4-0.8-4.4c-0.2-0.6,0.1-2.7,0.2-3.4c0-0.2,0-0.3,0-0.5c-0.6-2-0.8-5.7-0.6-8l-0.8,1.4c-0.3-0.7-0.4-1.5-0.1-2.2
		l-0.9-0.3l-0.2,2.9h-0.3c0.2,0.1-0.1-0.5-0.1-0.7c-0.1-0.7,0-1.8,0.1-2.5C549.1,326.8,549.3,326.8,549.5,326.7z M553,329.3
		c0.1,1.7,0.1,3.4,0,5.1c0,0.6,0.3-0.1,0.4-0.6c0.2-1.1,0.3-3.3,0.1-4.5C553.4,329,553,329,553,329.3z"/>
	<path d="M380.7,295.2c0-0.2,0.1-0.5-0.1-0.6c-0.4-0.2-0.9,0-1.3,0v-1.3c0-0.1,0.2,0.1,0.3,0.2c0.2,0.1,0.3,0.2,0.5,0.3
		c0.7,0.4-0.1-0.4,0.4-1l0.8-1.1l-0.2,4.4C381,295.8,380.9,295.5,380.7,295.2z"/>
	<path d="M57.6,330.9c-0.2-3.3-0.3-6.4-0.4-9.7h0.6c0,0.3,0,0.6,0,0.9c0.1,3.1,0.2,6.1,0.3,9.3h-0.4C57.5,331.4,57.6,331,57.6,330.9
		z"/>
	<path d="M52.5,344.4c0-0.1-0.1-0.2-0.1-0.4c0-0.2,0-0.3,0-0.5c0.1-1.6,0.1-4.1-0.1-5.8l-0.9-0.3c-0.1-0.7,0.1-2.9,0.4-3.6
		c0.2-0.5,0.8-0.9,1.3-1.1c-0.3-0.5-0.8-0.7-1.3-0.8c0.1-0.5,0.2-1.1,0.7-2c0.2,0.3,0.1,0.7-0.1,1c-0.3,0.3,0.3,0.1,0.3,0.6
		c0,0.2,0.6-1,0.5,0.1l-0.1-2.4c-0.2-0.5-0.4-1-0.5-0.5c0,0.2-0.1,0.5-0.1,0.7c-0.6-0.6-1-0.9-1.4-0.9c0-0.2-0.1-0.4-0.1-0.5
		c-0.3-0.8-0.3-2-0.5-2.9c-0.1-0.5,0.7-1.5,1.1-1.8c0.1,0.3,0.2,0.6,0.3,0.9c-0.1,0.3-0.1,0.7,0,1s0.1,0.6,0.2,0.8
		c0.2,0.7,0.4-0.2,0.3-0.8c0-0.8-0.1-1.4,0.1-2.2c0,0.1,0.9,2,1.1,2.2c-0.2,0.2-0.8,1.1-0.8,1.5c-0.3,0.2-0.7,0.4-0.9,0.5
		c-0.3,0,0.4,0.3,0.2,0.6l1-0.4l0.4,1.1c0.2,0.5,0.4-0.1,0.3-0.7c-0.2-0.8-0.2-1.8,0.3-2.4c0.1-1.7,0-3.8-0.2-5.4
		c0.4-1.5,0.6-2.4,0.7-3.9c0.4,0.5,0.5,0.8,0.5,1c0,3.8-0.4,8.1-0.5,12.1c-0.4-0.1-0.7,0.2-0.8,0.5l0.1,0.7c0.2,0.1,0.5,0.2,0.7,0.3
		c-0.8,0.5-0.2,5.2-0.4,6.3c-0.2,1-0.6,1.7-1.5,2.1c0.2,0.7,0.6,2.3,1.3,2.7c-0.2,1-0.2,3.6,0.1,4.5c-0.3,1.5-0.2,2.9-1,3.9
		c-0.2-1.4-0.4-3.5-0.3-4.9C52.7,344.8,52.6,344.6,52.5,344.4z"/>
	<path d="M50.4,341.4c-0.3-0.7-0.2-1.9,0.2-1.1c0.2,0.2,0.3,0.4,0.5,0.6l0.4-1.6c0.1-0.3,0.2,0.6,0.3,0.8c-0.2,0.5,0,1.6,0.2,2
		L50.4,341.4z"/>
	<path d="M442.3,289.8c0.4,1.1,0,0.8,0.2,1.9l0.8,0.3c0,1.6,0.1,3.1,0.2,4.6c-0.5-0.2-0.5-0.7-0.8-0.8c-0.3,0-0.3,0.3-0.5,0.5
		c-0.4,0.4-0.2-0.2,0-0.7c0.5-1.4,0-3.4-0.2-4.9C442,290.5,442.2,290.2,442.3,289.8z"/>
	<path d="M378.1,308.9c0-0.1,0.1-0.2,0.1-0.3c0.2-0.4,0.4-0.2,0.6,0.2c0.1,0.4,0.2,0.7,0.3,1.1c0,0.2,0,0.3,0,0.5
		c0,0.5-0.2,1.1-0.4,0.6C378.4,310.2,378.2,309.6,378.1,308.9z"/>
	<path d="M110,303.5c-0.1-1.5-0.3-3.3-0.1-4.9c0.1-1.1,0.4-3.2,0.7-4.2c0.1-0.3,0.3,0.5,0.2,0.7c-0.3,2.2-0.2,4.6-0.1,6.8
		c0,0.5-0.5,2.6-0.6,2.9C110.1,304.5,110,304,110,303.5z"/>
	<path d="M257.1,296.9c0.1-0.2,0.2-0.5,0.2-0.7c0.3-3.4,0.5-7.1,0.9-10.5h-5.5c-0.2,0.2-0.3,0.7-0.5,0.5s-0.5-0.6-0.8-0.7
		c0.2-0.1,0.5-0.2,0.8-0.2c2.1,0,4.2,0,6.3,0c0.3,0,0.5,0.1,1,0.1c-0.3,0.2-0.5,0.3-0.8,0.5c0.3,2.4,0,5-0.1,7.5
		c-0.1,1.8,0.4,3.9,0.6,5.5l0.8,0.5c-0.5,0.3-0.6,0.8-0.7,1.3s0,1.1,0.2,0.7s0.5-0.8,0.7-1.2c0.4,1.4,0.8,2.5,0.6,4
		c-0.1,0.6,0.1,1.4,0.2,0.8c0.1-0.5,0.3-1.3,0.3-1.8c0-0.6,0.1-1.3,0.2-0.7c0.1,0.2,0.1,0.5,0.2,0.7s0.2,0.4,0.3,0.7
		c-0.2,1-0.5,1.3-0.9,1.8c0.3,0.8,0,2.2,0.2,2.6c0.1,0.4-0.4-0.7-0.6-1.1c-0.4-1-0.4-2.7-0.4-3.7c-0.2,0.4-0.3,0.9-0.5,1.3l-0.3,1.4
		c-0.2-0.3-0.4-0.6-0.6-0.9c0.1-1.6,0.1-3.7,0.1-5.4l-1.1-1c0,0.1-0.8,2.5-0.8,2.9c-0.2,1.5,0.2,3.9,0.2,5.6l-0.8,1.5
		c0-3.2,0-6.4-0.1-9.5c0-0.2,0-0.5,0-0.8C256.7,297.8,256.8,297.5,257.1,296.9z"/>
	<path d="M60.3,314c0.2,0.1,0.3,0.2,0.5,0.3c-0.2,1.3-0.4,2.3-0.5,3.6c0.2,0,0.5,0.1,0.6-0.1c0.2-0.2,0.8-1.9,0.9-2.1
		c0.2-1.3-0.3-1.7-0.2-2.9c0.2-2,1.5-5.7,1.7-7.3c0.1-1.3-0.5-3.1-0.7-4.4c0.3-0.1,0.5-0.2,0.8-0.3v-5.4c0.2,0.2,0.5,0.4,0.7,0.6
		c0,0.4,0.4,0.4,0.6,0.6c0,0,0.1,1,0.1,1.1c0.1,5.2-0.9,12.6-1.1,18.1c0,0.9,0.5,5.2,0.6,6.6h-0.6c0,0.3,0-0.5,0-0.8
		c0-0.7,0-1.4,0.1-2.1H63c0,0.2,0,0.5-0.1,0.7c-0.3,3-0.2,6.6-0.8,9.5c-0.2-0.2-0.3-0.3-0.5-0.5c-0.2,1.4-0.5,2.7-0.9,4.1
		c-0.3-0.5-0.7-1.3-0.7-1.9c-0.1-2,0-4.1,0-6.1h-0.7l0.1,3h-0.5c0,0.3,0.1-0.6,0.1-0.8c0.2-1.5,0.2-4.8-0.1-6.3l1.1-0.5
		c-0.2-0.3-0.6-2.4-0.6-2.9c0-0.3,0-0.6,0-0.9C60.4,316,60.2,314.9,60.3,314z M62.6,316.7c0,0.5,0.1,1.1,0.2,0.6
		c0.5-2.1,0.9-5.7,0.9-7.9c0-0.7-0.4-1.6-0.4-0.9C63.1,311.2,62.8,313.9,62.6,316.7z"/>
	<path d="M52.3,347.4c-0.1,0.5,0,0.9,0,1.5c0.1,0.3,0.2,0.7,0.4,1c0.1,0.2,0.2,0.4,0.3,0.5c0.4,2.9,0.4,7.5-0.3,9.7l-0.3,1.1
		c-0.4-1.8-0.2-3.1-0.4-5c-0.1-0.8,0.5-3,0.8-3.8c-0.5-0.3-0.8-1.2-0.7-1.7c-0.2,0-0.3,0.1-0.5,0.1v-1c-0.1-0.2-0.2-0.3-0.3-0.5
		l-0.8-0.8C51.1,348.2,51.7,347.8,52.3,347.4z"/>
	<path d="M262.2,302.5c0.2-3.2,0.3-7.2,0.2-10.5c0.2,0,0.4,0.1,0.7,0.1c-0.1-0.9,0-1.8,0.4-2.6c0.4,1.1,0.3,2.1,0.7,3.2
		c0.2,0.8-0.2,2.3-0.2,2.9c0,0.2,0,0.3,0,0.5c0,0.1,0.1,0.4,0,0.3l1.1-0.1c-0.2-0.9-0.3-2.2-0.4-3.1c0.7-1.5,0.6-2.8,0.5-4.3l1,1.1
		c-0.5,1.6-0.3,3.2,0.4,4.7c0.2-0.8,0.2-1.8-0.2-2.6l1.1-0.1c0.3,2.6,0.7,5,1,7.6c0,0.3-0.4,0.9-0.1,0.9c0.2,0,0.3-0.1,0.5-0.1
		s0.3,0,0.5,0.1s0.3,0.3,0.5,0.4c0.2,0.4,0.3,0.8,0.3,1.2c0,0.8-0.2,1.4-0.7,2.1c-0.2-0.4-0.3-0.8-0.5-1.1c0.1-0.5,0-1.1-0.1-1.6
		c0-0.2-0.2,0.4-0.2,0.6c0.1,1.1,0.1,1.9,0,2.9l-0.3,0.6c-0.3-1.1-0.3-2-0.2-3c0.1-0.6-0.2-1.3-0.3-0.7c-0.2,0.8-0.6,1.9-1.2,2.5
		l-0.1-1.4c-0.2-0.1-0.5-0.3-0.7-0.4l-0.6,0.2l-0.4,1.5c-0.4-2.4-0.5-5-1-7.5l-0.3,3.3l-0.9,0.5
		C262.7,301.4,262.5,301.8,262.2,302.5z M265.9,300.8c0.3,0.3,0.6,0.3,0.5,0c-0.2-0.7-0.3-1.4-0.2-2.2c0-0.3,0.3-0.6,0.1-0.8
		l-0.9,0.1c0.1,1,0.1,1.7,0.2,2.6C265.6,300.7,265.8,300.8,265.9,300.8z"/>
	<path d="M374.8,301.2c-0.1-2-0.3-3.9-0.2-6c0.1-1.6,0.4-3.7,0.7-5.2c0.1,0.4,0.1,0.9,0.7,12c-0.3-0.5-1.1,0.1-1.2,0.7
		c-0.1-0.2-0.2-0.5-0.3-0.7C374.6,301.8,374.7,301.5,374.8,301.2z"/>
	<path d="M253.2,299.9c0.2-0.2,0.3-0.3,0.5-0.5s0.2-0.5,0.3-0.8c0-0.2,0-0.3,0-0.5c-0.2-1-0.1-1.4,0-2.4l0.7,0.1
		c0.2-0.1,0.4-0.2,0.6-0.3c-0.7-0.5-0.9-0.6-1.1-1.6l0.7-0.2c0-0.5,0.1-0.9,0.1-1.4l0.6,1c0,0.2,0.2-0.4,0.4-0.2l-0.5-0.9
		c0.5-0.5,0.8-1,1-1.7c0,0.2,0.2,1.5,0.3,1.7c-0.2,0.2-0.4,0.3-0.5,0.5c-0.1,0.3,0.2,0.7,0.4,1c-0.1,0.2-0.2,0.3-0.3,0.5
		c-0.6,0.8-1,1.1-1.2,2.5c-0.3,2.9-0.2,6-0.1,9h-0.9c0.2,0.2,0-0.5,0.1-0.7c0.1-0.7,0-2-0.1-2.6l-0.6,0.1c0.1,0.1,0,0.4-0.1,0.6
		c-0.1,1.1,0,1.6,0.2,2.6l-1.1,0.2c0.2,0.2-0.1-0.4-0.1-0.6c-0.2-0.8-0.1-1.7,0-2.5c0.1-0.1,0.3-0.2,0.4-0.2
		C253.2,301.6,253.1,300.8,253.2,299.9z"/>
	<path d="M271.8,373.3c-0.2,0.3-0.4,0.5-0.9,0.5c0.1-0.7,0.2-1.2,0.1-2l0.8-0.2C271.9,372.5,272,372.9,271.8,373.3z"/>
	<path d="M424.2,373.3c-0.2,0.2-0.3,0.6-0.8,1c0-0.5,0-2,0-2.5h0.8c0,0.2,0,0.4,0.1,0.6C424.3,372.5,424.5,373.6,424.2,373.3z"/>
	<path d="M52.3,318.6c-0.1,0.1-0.2,0.3-0.3,0.4c-0.1,0.2-0.4,0-0.6,0c0.4,0.8-0.2,2.5-0.4,3.3c-0.1,0.3-0.3-0.6-0.3-0.8
		c0-1.5-0.1-2.6-0.9-3.8c0.1,5.7-0.9,12.1-0.1,17.5c-0.2,0.6-0.3,1.2-1.1,1.5c0.1-3.8,0.2-7.4,0.3-11.2c0-0.2,0.2-0.3,0.2-0.5
		c-0.1-0.3-0.5-1.3-0.7-1.5c0.4-3.8,0.5-7.3,0.4-11.2c0-1.5,0.3-3,0.6-4.5c0.3,1.8,0.9,3.6,1,5.4c0.1,1.1,0,2.2-0.1,3.3
		c0,0.7,0.2-0.2,0.3-0.8c0.2-1.6,0.3-3.3,0.3-4.9c0-0.3,0.2-0.5,0.3-0.8l0.5,1.2C52,313.4,52.5,316,52.3,318.6z"/>
	<path d="M478.8,372.1c0.1-0.2,0.3-0.5,0.3-0.7c0.1-3.7-0.1-7.5,0-11.2c0-0.2,0.1-0.4,0-1c0.3,0.3,0.4,0.6,0.4,1
		c0,4.4-0.1,8.8,0.1,13.2c0,0.2,0,0.3,0,0.5c0,0.6,0,1.4-0.3,0.8C478.9,373.8,478.6,372.7,478.8,372.1z"/>
	<path d="M419,374.8c0.4-0.2,0.7-1.2,0.9-2c0,1.1-0.1,2.1-0.1,3.2l-0.9,0.6C419,375.7,418.6,375.3,419,374.8z"/>
	<path d="M266.9,374.5c0.3-0.2,0.2-0.7,0.7-1.2c-0.1,0.3-0.2,2.3-0.1,2.7l-0.8,0.6C266.7,375.6,266.4,375.4,266.9,374.5z"/>
	<path d="M273.5,296.2c-0.1-0.4,0-0.8,0-1.2h0.9v1.9h-0.9C273.3,296.9,273.5,296.4,273.5,296.2z"/>
	<path d="M52.3,336.2c-0.1-0.4-0.1-1.6,0-2c0-0.2,0.1-0.4,0.1-0.6h0.7c0,1.2,0.1,2.3,0.2,3.5c0,0.6,0,1.1-0.3,0.7
		C52.7,337.4,52.5,336.8,52.3,336.2z"/>
	<path d="M61.3,321.8c-0.2,0.5-0.3,1-0.5,1.4c-0.2,0.6-0.3-0.1-0.3-0.8l0.4-3.5c0.3,0.3,0.6,0.6,0.9,0.8c0.2-0.3,0.3-0.7,0.5-1
		c0.3-0.5,0.3,0.2,0.2,0.8c-0.1,1.2-0.3,2.9-0.6,4.1C61.8,323.1,61.5,322.4,61.3,321.8z"/>
	<path d="M275.6,295.7c0.2-1.1,0.2-3.1,0.1-4.1h0.6c0.2,0.2,0,0.5,0,0.8c0,0.6-0.1,1.5,0.3,2.3c-0.6,0.2-1,1.1-1,1.7
		C275.6,296.1,275.5,295.9,275.6,295.7z"/>
	<path d="M53.3,284.5c-0.1-1,0-1.8-0.1-2.9c-0.1-0.8,0.5-3.8,0.6-4.6c0.1-0.4,0.2,0.8,0.3,1.2c0.2,1.4,0,3.2,0,4.9
		c0,0.5-0.2,1-0.4,1.5l-0.4,0.9C53.4,285.1,53.4,284.8,53.3,284.5z"/>
	<path d="M448.3,254.2c0.1-1.9,0.3-3.5,0.6-5.3c0.2,0.3,0.5,1,0.4,1.4c-0.2,1.7-0.3,3.1-0.8,4.8
		C448.4,255.4,448.3,254.5,448.3,254.2z"/>
	<path d="M228.3,253.2c0-0.2,0-1.3,0-1.5c0.1-2.3,0.5-4.2,1-6.5c0.1-0.5,0.2,0.1,0.2,0.6l-0.5,8.1h-0.6
		C228.1,253.9,228.3,253.5,228.3,253.2z"/>
	<path d="M437.5,276.2c0.1-1.3,0.1-3.1,0.1-4.3c0-0.3,0.3,0.6,0.4,0.9c0,0.1,0.3,1.7,0.3,2c0.1,0.5-0.4,2.4-0.5,2.8
		C437.8,277.9,437.5,276.6,437.5,276.2z"/>
	<path d="M126.5,263.4c-0.6-0.9,0-2.5,0.6-3.3c0.1,0.6,0.6,2.1,0.9,2.7L126.5,263.4z"/>
	<path d="M544,278.6c-0.3-3.6-0.4-8.8-0.3-12.4l0.7,0.5c0.1,0.5,0.2,1.1,0.2,1.7c0.1,3.6,0,7.3,0,10.9h-0.4
		C543.8,279.3,544,278.8,544,278.6z"/>
	<path d="M441.3,281.1c0-0.1-0.3-0.9-0.3-1c0-1.3,0-2.7,0-4c0-0.4,0.3,0.7,0.4,1.1c0.3,1.6,0.3,3,0.4,4.6
		C441.6,281.5,441.5,281.3,441.3,281.1z"/>
	<path d="M59.6,277.6c-0.3-1.1-0.5-3.1-0.4-4.2l0.9,0.1c0,0.2,0,0.5,0.1,0.7c0.1,1.6,0,3.3-0.1,4.9
		C59.8,278.6,59.7,278.1,59.6,277.6z"/>
	<path d="M371.3,268.1c-1,0-0.5-0.3-0.2-1.2c0.5-1.6,0.5-1.9,0.5-3.6h0.5l-0.3,4.9C371.8,268.3,371.5,268.1,371.3,268.1z"/>
	<path d="M436,273.7c-0.3-1.3-0.4-3.4-0.3-4.7c0-0.3,0.4,0.5,0.5,0.8c0.2,0.5,0.2,1,0.3,1.5c0.1,0.5,0,2.6-0.1,3.2
		C436.3,274.8,436,274,436,273.7z"/>
	<path d="M281.5,271.4c0.1-0.7,0.1-2,0-2.6l0.6-0.1c0.3,0.2,0,1.8-0.1,2.1c0,0.2-0.1,0.4-0.1,0.6C282,271.5,281.7,271.4,281.5,271.4
		z"/>
	<path d="M64.2,275.5c-0.1-0.1-0.3-0.2-0.3-0.3c0-0.9,0.1-2.1,0.2-3h1.1c0,0.2,0,0.4,0,0.6c-0.1,0.8-0.1,1.7,0,2.9
		c-0.1-0.1-0.1-0.3-0.3-0.4C64.5,275.3,64.4,275.5,64.2,275.5z"/>
	<path d="M64.2,275.5c-0.1,1.6-0.2,3.2,0.1,4.7c0.4-0.4,1-1.6,1.1-2.1c0.3,0.4,0.5,0.7,0.5,1c0.1,0.7,0,1.7-0.1,2.5l-1.7-0.3
		c-0.2-0.2-0.7-1.3-0.7-1.7c0-1-0.1-2.6,0.1-3.4C63.8,276,64,275.7,64.2,275.5z"/>
	<path d="M230.4,287.4c0-0.5,0.4-1,0.7-1.3c0.6,1.1,0.3,1.6-0.2,2.6C230.8,288.3,230.5,287.8,230.4,287.4z"/>
	<path d="M234.6,299.8c-0.2,0.2-0.3,0.4-0.5,0.5c-0.5-1.8-0.3-3.7-0.3-5.6L233,295l-0.1-5.3c0.3,0,0.5,0.1,0.8,0.1l0.6-1.2
		c0.2,2.5,0.1,5,0.1,7.4c0,0.8,0.5,3.5,0.9,3.9c-0.1,0.2-0.2,0.4-0.2,0.6C235,300.4,234.8,300.1,234.6,299.8z"/>
	<path d="M53,322.3c-0.1-0.2-0.1-0.5-0.1-0.7c0-0.3,0.1-0.5,0.1-0.7c0.1-0.5,0.3,0,0.5,0.5l0.6,1.2l-0.9,0.4
		C53,323,53.1,322.5,53,322.3z"/>
	<path d="M236.4,297.8c-0.1-0.4-0.1-0.8,0-1.2l0.9-1.5c0.1,0.9,0.2,1.7-0.1,2.5c0,0.1-0.1,0.1-0.2,0.2H236.4z"/>
	<path d="M235.9,301.1c0.1-0.2,0.3-0.3,0.3-0.5c0.1-0.5-0.3-1.2-0.6-1.5l1.5-1c0.1,0.9,0,2.6-0.4,3.4L235.9,301.1L235.9,301.1z"/>
</g>
<rect x="18" y="69.5" class="st0" width="604" height="341"/>
</svg>
